<svg width="32" height="32" viewBox="0 0 32 32" fill="none" xmlns="http://www.w3.org/2000/svg">
<rect width="32" height="32" fill="#222222"/>
<path d="M21.0397 9C21.3724 9 21.6426 9.11088 21.8505 9.33265C22.0584 9.55441 22.1624 9.83162 22.1624 10.1643V22.2851C22.1624 22.6454 22.0377 22.9504 21.7882 23.1999C21.5525 23.4355 21.2545 23.5533 20.8942 23.5533C20.714 23.5533 20.5269 23.5256 20.3328 23.4701C20.1527 23.4008 20.0141 23.3107 19.917 23.1999L11.7464 12.8254L12.2869 12.4928V22.389C12.2869 22.7217 12.1761 22.9989 11.9543 23.2206C11.7464 23.4424 11.4692 23.5533 11.1227 23.5533C10.79 23.5533 10.5198 23.4424 10.3119 23.2206C10.104 22.9989 10 22.7217 10 22.389V10.2682C10 9.90785 10.1178 9.60985 10.3534 9.37423C10.6029 9.12474 10.9078 9 11.2682 9C11.4623 9 11.6632 9.04158 11.8711 9.12474C12.079 9.19404 12.2315 9.30493 12.3285 9.45739L20.2497 19.5615L19.8962 19.811V10.1643C19.8962 9.83162 20.0002 9.55441 20.2081 9.33265C20.416 9.11088 20.6932 9 21.0397 9Z" fill="white"/>
</svg>
