<?xml version="1.0" encoding="UTF-8"?>
<svg id="_レイヤー_5" xmlns="http://www.w3.org/2000/svg" version="1.1" viewBox="0 0 2000 2000">
  <!-- Generator: Adobe Illustrator 29.5.1, SVG Export Plug-In . SVG Version: 2.1.0 Build 141)  -->
  <defs>
    <style>
      .st0 {
        fill: #fff;
      }
    </style>
  </defs>
  <path class="st0" d="M583.75,890.84c-131.38,0-278.61-31.9-278.61-156.12v-286.15c0-46.49-58.35-49.31-105.45-49.48v-2.59h482.67v2.58c-62.38.15-106.56,3.49-106.56,77.24v266.43c0,134.42,89.48,134.61,118.88,134.42,123.46-.81,186.12-92.58,186.89-160.04v-257.46c0-56.16-61.77-60.27-101.57-60.58v-2.6h211.26v2.61c-35.47.41-104.34,5.23-104.34,61.67v259.8c0,53.46-40.04,114.97-88.87,142.26-54.88,30.68-82.91,28-214.29,28h-.01Z"/>
  <path class="st0" d="M1442.83,625.37c-3,0-4.78-.32-7.41-2.21l-317.38-210.6v174.91c0,34.84,30.42,36.05,111.01,36.1v1.8h-232.91v-1.8c81.86-.05,119.33-1.39,119.33-40.24v-157.87c0-26.5-29.66-27.45-108.23-27.48v-1.48h435.04c11.32,0,17.28,1.61,25.5,6.89l248.23,166.81v-141.87c0-29.38-29.89-30.32-117.67-30.36v-1.48h245.68v1.48c-73.02.05-124.88,1.38-124.88,35.46v184.66c0,4.35-5.09,7.28-12.67,7.28h-263.64,0Z"/>
  <path class="st0" d="M199.68,1297.98v-3.13h69.97c21.33,0,38.68-21.7,38.68-48.39v-296.94c0-45.87-18.46-47.24-105.6-47.28v-2.57h516.28c137.27,0,277.13,104.99,277.13,208.03,0,93.53-102.71,190.27-274.6,190.27H199.68ZM564.56,1292.07h8.22c77.67,0,158,0,158-193.25s-87.6-193.81-158-193.81h-8.22v387.06Z"/>
  <path class="st0" d="M1370.49,1035.46c-141.43,0-472.63,0-472.63-212.47,0-30.51,20.36-76.99,77.51-115.91,69.84-47.56,178.66-72.7,314.71-72.7h69.39c147.9,0,265.87,28.17,341.14,81.47,59.72,42.28,80.9,91.91,80.9,121.57,0,22.09-8.02,78.66-82.34,126.95-72.59,47.17-183.18,71.09-328.67,71.09h-.01ZM1327.68,639.72c-62.54,0-109.71,72.82-109.71,169.39,0,128.7,49.14,222.11,116.85,222.11,34.55,0,114.9-18.45,114.9-189.37,0-120.9-49.04-202.13-122.03-202.13h-.01Z"/>
  <path class="st0" d="M672.04,1625.51c-3.18,0-5.06-.44-7.85-3.06l-335.6-291.54v242.14c0,48.22,32.17,49.91,117.38,49.97v2.49h-246.29v-2.49c86.57-.06,126.19-1.93,126.19-55.71v-218.56c0-36.69-31.37-38-114.45-38.05v-2.05h460.03c11.97,0,18.27,2.23,26.97,9.54l262.49,230.94v-196.4c0-40.67-31.6-41.98-124.43-42.03v-2.05h259.79v2.05c-77.22.07-132.06,1.91-132.06,49.09v255.65c0,6.03-5.38,10.08-13.39,10.08h-278.78Z"/>
  <path class="st0" d="M993.37,1625.51v-4.57c99.87-.07,121-2.56,121-90.19v-391.8c0-89.14-20.66-91.73-118.22-91.81v-3.76h759.17c9.46,0,11,2.14,11,15.27v240.07l-149.41-161.4c-83.03-90.18-175.63-90.18-220.13-90.18h-8.98v279.34h8.98c88.08,0,149.15-98.51,172.51-143.67v290.03c-79.91-140.18-144.43-140.17-172.51-140.17h-8.98v286.64h17.45c51.33,0,104.41,0,197.02-94.01l174.02-177.31.03,271.98c0,2.61-.13,4.08-.23,4.86-.7.28-2.22.67-5.22.67h-777.5Z"/>
</svg>