<svg width="180" height="40" viewBox="0 0 180 40" fill="none" xmlns="http://www.w3.org/2000/svg">
<rect width="40" height="40" fill="#222222"/>
<path d="M24.9585 12.7234C25.2912 12.7234 25.5615 12.8342 25.7694 13.056C25.9773 13.2778 26.0812 13.555 26.0812 13.8876V26.0084C26.0812 26.3688 25.9565 26.6737 25.707 26.9232C25.4714 27.1588 25.1734 27.2767 24.813 27.2767C24.6328 27.2767 24.4457 27.2489 24.2517 27.1935C24.0715 27.1242 23.9329 27.0341 23.8359 26.9232L15.6652 16.5488L16.2058 16.2161V26.1124C16.2058 26.445 16.0949 26.7222 15.8731 26.944C15.6652 27.1658 15.388 27.2767 15.0415 27.2767C14.7089 27.2767 14.4386 27.1658 14.2307 26.944C14.0228 26.7222 13.9188 26.445 13.9188 26.1124V13.9916C13.9188 13.6312 14.0366 13.3332 14.2723 13.0976C14.5217 12.8481 14.8267 12.7234 15.187 12.7234C15.3811 12.7234 15.5821 12.7649 15.79 12.8481C15.9979 12.9174 16.1503 13.0283 16.2473 13.1807L24.1685 23.2849L23.8151 23.5344V13.8876C23.8151 13.555 23.919 13.2778 24.1269 13.056C24.3348 12.8342 24.612 12.7234 24.9585 12.7234Z" fill="white"/>
<path d="M164 21.5869C164 22.4722 163.8 23.2548 163.401 23.9349C163.012 24.6042 162.483 25.1278 161.814 25.5056C161.155 25.8835 160.416 26.0724 159.596 26.0724C158.775 26.0724 158.03 25.8835 157.361 25.5056C156.702 25.1278 156.173 24.6042 155.774 23.9349C155.385 23.2548 155.191 22.4722 155.191 21.5869C155.191 20.7017 155.385 19.9245 155.774 19.2552C156.173 18.575 156.702 18.0461 157.361 17.6682C158.03 17.2796 158.775 17.0853 159.596 17.0853C160.416 17.0853 161.155 17.2796 161.814 17.6682C162.483 18.0461 163.012 18.575 163.401 19.2552C163.8 19.9245 164 20.7017 164 21.5869ZM162.057 21.5869C162.057 21.0364 161.944 20.5614 161.717 20.162C161.501 19.7517 161.204 19.4333 160.826 19.2066C160.459 18.9799 160.049 18.8665 159.596 18.8665C159.142 18.8665 158.727 18.9799 158.349 19.2066C157.982 19.4333 157.685 19.7517 157.458 20.162C157.242 20.5614 157.134 21.0364 157.134 21.5869C157.134 22.1267 157.242 22.6017 157.458 23.0119C157.685 23.4114 157.982 23.7244 158.349 23.9511C158.727 24.1778 159.142 24.2912 159.596 24.2912C160.049 24.2912 160.459 24.1778 160.826 23.9511C161.204 23.7244 161.501 23.4114 161.717 23.0119C161.944 22.6017 162.057 22.1267 162.057 21.5869Z" fill="#222222"/>
<path d="M152.384 24.9227C152.384 25.2034 152.293 25.4409 152.109 25.6352C151.926 25.8187 151.693 25.9105 151.413 25.9105C151.132 25.9105 150.9 25.8187 150.716 25.6352C150.533 25.4409 150.441 25.2034 150.441 24.9227V18.235C150.441 17.9544 150.533 17.7223 150.716 17.5387C150.9 17.3444 151.132 17.2473 151.413 17.2473C151.693 17.2473 151.926 17.3444 152.109 17.5387C152.293 17.7223 152.384 17.9544 152.384 18.235V24.9227ZM151.397 16.1947C151.03 16.1947 150.77 16.1354 150.619 16.0166C150.468 15.8979 150.393 15.6873 150.393 15.3851V15.0774C150.393 14.7643 150.474 14.5538 150.636 14.4459C150.808 14.3271 151.067 14.2678 151.413 14.2678C151.791 14.2678 152.055 14.3271 152.206 14.4459C152.357 14.5646 152.433 14.7751 152.433 15.0774V15.3851C152.433 15.6981 152.352 15.914 152.19 16.0328C152.028 16.1407 151.764 16.1947 151.397 16.1947Z" fill="#222222"/>
<path d="M146.182 13.9276C146.462 13.9276 146.694 14.0194 146.878 14.2029C147.062 14.3864 147.153 14.6239 147.153 14.9154V24.9227C147.153 25.2033 147.062 25.4408 146.878 25.6352C146.694 25.8187 146.462 25.9104 146.182 25.9104C145.901 25.9104 145.669 25.8187 145.485 25.6352C145.302 25.4408 145.21 25.2033 145.21 24.9227V24.1292L145.566 24.275C145.566 24.4153 145.491 24.588 145.34 24.7931C145.189 24.9874 144.983 25.1818 144.724 25.3761C144.465 25.5704 144.158 25.7377 143.801 25.8781C143.456 26.0076 143.078 26.0724 142.668 26.0724C141.923 26.0724 141.248 25.8835 140.644 25.5056C140.039 25.117 139.559 24.588 139.203 23.9187C138.857 23.2386 138.684 22.4613 138.684 21.5869C138.684 20.7017 138.857 19.9244 139.203 19.2551C139.559 18.575 140.034 18.0461 140.628 17.6682C141.221 17.2796 141.88 17.0853 142.603 17.0853C143.067 17.0853 143.494 17.1554 143.882 17.2958C144.271 17.4361 144.606 17.6142 144.886 17.8301C145.178 18.0461 145.399 18.2674 145.55 18.4941C145.712 18.71 145.793 18.8935 145.793 19.0446L145.21 19.2551V14.9154C145.21 14.6347 145.302 14.4026 145.485 14.2191C145.669 14.0248 145.901 13.9276 146.182 13.9276ZM142.911 24.2911C143.386 24.2911 143.801 24.1724 144.158 23.9349C144.514 23.6974 144.789 23.3735 144.983 22.9633C145.189 22.5531 145.291 22.0943 145.291 21.5869C145.291 21.0687 145.189 20.6045 144.983 20.1943C144.789 19.7841 144.514 19.4602 144.158 19.2227C143.801 18.9852 143.386 18.8665 142.911 18.8665C142.447 18.8665 142.036 18.9852 141.68 19.2227C141.324 19.4602 141.043 19.7841 140.838 20.1943C140.644 20.6045 140.547 21.0687 140.547 21.5869C140.547 22.0943 140.644 22.5531 140.838 22.9633C141.043 23.3735 141.324 23.6974 141.68 23.9349C142.036 24.1724 142.447 24.2911 142.911 24.2911Z" fill="#222222"/>
<path d="M134.799 17.2472C135.08 17.2472 135.312 17.3444 135.496 17.5387C135.679 17.7222 135.771 17.9543 135.771 18.235V22.348C135.771 23.4923 135.453 24.3991 134.816 25.0684C134.179 25.7377 133.261 26.0724 132.063 26.0724C130.865 26.0724 129.947 25.7377 129.31 25.0684C128.684 24.3991 128.371 23.4923 128.371 22.348V18.235C128.371 17.9543 128.463 17.7222 128.646 17.5387C128.83 17.3444 129.062 17.2472 129.342 17.2472C129.623 17.2472 129.855 17.3444 130.039 17.5387C130.222 17.7222 130.314 17.9543 130.314 18.235V22.348C130.314 23.0065 130.46 23.4977 130.751 23.8216C131.043 24.1346 131.48 24.2912 132.063 24.2912C132.657 24.2912 133.099 24.1346 133.391 23.8216C133.682 23.4977 133.828 23.0065 133.828 22.348V18.235C133.828 17.9543 133.92 17.7222 134.103 17.5387C134.287 17.3444 134.519 17.2472 134.799 17.2472Z" fill="#222222"/>
<path d="M120.547 17.4092H124.384C124.644 17.4092 124.859 17.4956 125.032 17.6683C125.205 17.841 125.291 18.0569 125.291 18.316C125.291 18.5643 125.205 18.7748 125.032 18.9476C124.859 19.1095 124.644 19.1904 124.384 19.1904H120.547C120.288 19.1904 120.072 19.1041 119.899 18.9314C119.726 18.7586 119.64 18.5427 119.64 18.2836C119.64 18.0354 119.726 17.8302 119.899 17.6683C120.072 17.4956 120.288 17.4092 120.547 17.4092ZM122.279 15.3851C122.56 15.3851 122.787 15.4823 122.959 15.6766C123.143 15.8601 123.235 16.0922 123.235 16.3729V23.5787C123.235 23.7299 123.262 23.854 123.316 23.9512C123.38 24.0483 123.461 24.1185 123.559 24.1617C123.667 24.2049 123.78 24.2265 123.899 24.2265C124.028 24.2265 124.147 24.2049 124.255 24.1617C124.363 24.1077 124.487 24.0807 124.627 24.0807C124.778 24.0807 124.913 24.1509 125.032 24.2912C125.162 24.4316 125.226 24.6259 125.226 24.8742C125.226 25.1765 125.059 25.4247 124.725 25.6191C124.401 25.8134 124.05 25.9105 123.672 25.9105C123.445 25.9105 123.192 25.8943 122.911 25.862C122.641 25.8188 122.382 25.727 122.134 25.5867C121.896 25.4355 121.696 25.2088 121.535 24.9066C121.373 24.6043 121.292 24.1887 121.292 23.6597V16.3729C121.292 16.0922 121.383 15.8601 121.567 15.6766C121.761 15.4823 121.999 15.3851 122.279 15.3851Z" fill="#222222"/>
<path d="M113.297 26.0723C112.542 26.0723 111.862 25.9806 111.257 25.7971C110.653 25.6027 110.075 25.2681 109.524 24.7931C109.384 24.6743 109.276 24.5394 109.201 24.3883C109.125 24.2371 109.087 24.086 109.087 23.9349C109.087 23.6866 109.174 23.4707 109.346 23.2871C109.53 23.0928 109.757 22.9957 110.026 22.9957C110.232 22.9957 110.415 23.0604 110.577 23.19C110.987 23.5246 111.392 23.7783 111.791 23.9511C112.202 24.1238 112.704 24.2101 113.297 24.2101C113.697 24.2101 114.064 24.1508 114.399 24.032C114.733 23.9025 115.003 23.7351 115.208 23.53C115.413 23.3141 115.516 23.0712 115.516 22.8014C115.516 22.4775 115.419 22.2022 115.224 21.9755C115.03 21.7488 114.733 21.5599 114.334 21.4088C113.934 21.2468 113.427 21.1227 112.812 21.0363C112.229 20.95 111.716 20.8204 111.273 20.6477C110.831 20.4642 110.458 20.2375 110.156 19.9676C109.864 19.6869 109.643 19.363 109.492 18.996C109.341 18.6182 109.265 18.1971 109.265 17.733C109.265 17.0313 109.443 16.4321 109.8 15.9355C110.167 15.4389 110.658 15.0611 111.273 14.802C111.889 14.5429 112.569 14.4134 113.314 14.4134C114.015 14.4134 114.663 14.5213 115.257 14.7373C115.861 14.9424 116.352 15.2068 116.73 15.5307C117.043 15.779 117.2 16.0651 117.2 16.3889C117.2 16.6264 117.108 16.8423 116.925 17.0367C116.741 17.231 116.525 17.3281 116.277 17.3281C116.115 17.3281 115.969 17.2795 115.84 17.1824C115.667 17.0313 115.435 16.8909 115.143 16.7614C114.852 16.621 114.544 16.5077 114.22 16.4213C113.897 16.3242 113.594 16.2756 113.314 16.2756C112.849 16.2756 112.455 16.335 112.131 16.4537C111.818 16.5725 111.581 16.7344 111.419 16.9395C111.257 17.1446 111.176 17.3821 111.176 17.652C111.176 17.9758 111.268 18.2457 111.451 18.4616C111.646 18.6667 111.921 18.8341 112.277 18.9636C112.633 19.0824 113.06 19.1903 113.556 19.2875C114.204 19.4062 114.771 19.5466 115.257 19.7085C115.753 19.8704 116.164 20.0809 116.487 20.34C116.811 20.5883 117.054 20.9068 117.216 21.2954C117.378 21.6732 117.459 22.1374 117.459 22.688C117.459 23.3897 117.265 23.9942 116.876 24.5016C116.487 25.009 115.975 25.3976 115.338 25.6675C114.712 25.9374 114.031 26.0723 113.297 26.0723Z" fill="#222222"/>
<path d="M95.8341 17.4092H99.6718C99.9309 17.4092 100.147 17.4956 100.32 17.6683C100.492 17.841 100.579 18.0569 100.579 18.316C100.579 18.5643 100.492 18.7748 100.32 18.9476C100.147 19.1095 99.9309 19.1904 99.6718 19.1904H95.8341C95.575 19.1904 95.3591 19.1041 95.1863 18.9314C95.0136 18.7586 94.9272 18.5427 94.9272 18.2836C94.9272 18.0354 95.0136 17.8302 95.1863 17.6683C95.3591 17.4956 95.575 17.4092 95.8341 17.4092ZM97.5667 15.3851C97.8474 15.3851 98.0741 15.4823 98.2468 15.6766C98.4303 15.8601 98.5221 16.0922 98.5221 16.3729V23.5787C98.5221 23.7299 98.5491 23.854 98.603 23.9512C98.6678 24.0483 98.7488 24.1185 98.8459 24.1617C98.9539 24.2049 99.0672 24.2265 99.186 24.2265C99.3155 24.2265 99.4343 24.2049 99.5422 24.1617C99.6502 24.1077 99.7743 24.0807 99.9147 24.0807C100.066 24.0807 100.201 24.1509 100.32 24.2912C100.449 24.4316 100.514 24.6259 100.514 24.8742C100.514 25.1765 100.346 25.4247 100.012 25.6191C99.688 25.8134 99.3371 25.9105 98.9593 25.9105C98.7326 25.9105 98.4789 25.8943 98.1982 25.862C97.9283 25.8188 97.6693 25.727 97.421 25.5867C97.1835 25.4355 96.9838 25.2088 96.8218 24.9066C96.6599 24.6043 96.5789 24.1887 96.5789 23.6597V16.3729C96.5789 16.0922 96.6707 15.8601 96.8542 15.6766C97.0485 15.4823 97.286 15.3851 97.5667 15.3851Z" fill="#222222"/>
<path d="M89.4265 17.0853C90.2254 17.0853 90.8299 17.2526 91.2402 17.5873C91.6612 17.9219 91.9472 18.3699 92.0984 18.9313C92.2603 19.4819 92.3413 20.0972 92.3413 20.7773V24.9227C92.3413 25.2034 92.2495 25.4409 92.066 25.6352C91.8825 25.8187 91.6504 25.9105 91.3697 25.9105C91.089 25.9105 90.8569 25.8187 90.6734 25.6352C90.4899 25.4409 90.3981 25.2034 90.3981 24.9227V20.7773C90.3981 20.421 90.3495 20.1026 90.2524 19.8219C90.166 19.5304 90.0041 19.2983 89.7666 19.1256C89.5291 18.9529 89.189 18.8665 88.7464 18.8665C88.3146 18.8665 87.9476 18.9529 87.6453 19.1256C87.3538 19.2983 87.1271 19.5304 86.9652 19.8219C86.8141 20.1026 86.7385 20.421 86.7385 20.7773V24.9227C86.7385 25.2034 86.6467 25.4409 86.4632 25.6352C86.2797 25.8187 86.0476 25.9105 85.7669 25.9105C85.4863 25.9105 85.2542 25.8187 85.0706 25.6352C84.8871 25.4409 84.7953 25.2034 84.7953 24.9227V18.235C84.7953 17.9543 84.8871 17.7222 85.0706 17.5387C85.2542 17.3444 85.4863 17.2472 85.7669 17.2472C86.0476 17.2472 86.2797 17.3444 86.4632 17.5387C86.6467 17.7222 86.7385 17.9543 86.7385 18.235V18.9313L86.4956 18.8827C86.5928 18.6992 86.7331 18.5049 86.9166 18.2998C87.1002 18.0839 87.3161 17.8841 87.5644 17.7006C87.8126 17.5171 88.0933 17.3714 88.4064 17.2634C88.7194 17.1447 89.0595 17.0853 89.4265 17.0853Z" fill="#222222"/>
<path d="M80.4224 17.0853C80.7031 17.0853 80.9352 17.1771 81.1187 17.3606C81.3022 17.5441 81.394 17.7816 81.394 18.0731V24.9227C81.394 25.2034 81.3022 25.4409 81.1187 25.6352C80.9352 25.8187 80.7031 25.9105 80.4224 25.9105C80.1417 25.9105 79.9096 25.8187 79.7261 25.6352C79.5426 25.4409 79.4508 25.2034 79.4508 24.9227V24.1292L79.8071 24.275C79.8071 24.4153 79.7315 24.588 79.5804 24.7932C79.4292 24.9875 79.2241 25.1818 78.965 25.3761C78.7059 25.5704 78.3983 25.7377 78.042 25.8781C77.6966 26.0076 77.3187 26.0724 76.9085 26.0724C76.1636 26.0724 75.4889 25.8835 74.8844 25.5056C74.2799 25.117 73.7995 24.588 73.4432 23.9187C73.0978 23.2386 72.925 22.4614 72.925 21.5869C72.925 20.7017 73.0978 19.9245 73.4432 19.2552C73.7995 18.575 74.2745 18.0461 74.8682 17.6682C75.4619 17.2796 76.1205 17.0853 76.8437 17.0853C77.3079 17.0853 77.7344 17.1555 78.123 17.2958C78.5116 17.4361 78.8463 17.6143 79.127 17.8302C79.4184 18.0461 79.6397 18.2674 79.7909 18.4941C79.9528 18.71 80.0338 18.8935 80.0338 19.0446L79.4508 19.2552V18.0731C79.4508 17.7924 79.5426 17.5603 79.7261 17.3768C79.9096 17.1825 80.1417 17.0853 80.4224 17.0853ZM77.1514 24.2912C77.6264 24.2912 78.042 24.1724 78.3983 23.9349C78.7545 23.6974 79.0298 23.3736 79.2241 22.9633C79.4292 22.5531 79.5318 22.0943 79.5318 21.5869C79.5318 21.0688 79.4292 20.6046 79.2241 20.1943C79.0298 19.7841 78.7545 19.4603 78.3983 19.2228C78.042 18.9853 77.6264 18.8665 77.1514 18.8665C76.6872 18.8665 76.277 18.9853 75.9207 19.2228C75.5645 19.4603 75.2838 19.7841 75.0787 20.1943C74.8844 20.6046 74.7872 21.0688 74.7872 21.5869C74.7872 22.0943 74.8844 22.5531 75.0787 22.9633C75.2838 23.3736 75.5645 23.6974 75.9207 23.9349C76.277 24.1724 76.6872 24.2912 77.1514 24.2912Z" fill="#222222"/>
<path d="M69.856 24.9227C69.856 25.2033 69.7588 25.4408 69.5645 25.6352C69.381 25.8187 69.1489 25.9104 68.8682 25.9104C68.5983 25.9104 68.3716 25.8187 68.1881 25.6352C68.0046 25.4408 67.9128 25.2033 67.9128 24.9227V14.9154C67.9128 14.6347 68.0046 14.4026 68.1881 14.2191C68.3824 14.0248 68.6199 13.9276 68.9006 13.9276C69.1813 13.9276 69.408 14.0248 69.5807 14.2191C69.7642 14.4026 69.856 14.6347 69.856 14.9154V24.9227Z" fill="#222222"/>
<path d="M61.5402 14.5753C62.1016 14.5753 62.6252 14.7372 63.111 15.0611C63.6075 15.385 64.007 15.8222 64.3092 16.3727C64.6115 16.9233 64.7626 17.5386 64.7626 18.2187C64.7626 18.888 64.6115 19.498 64.3092 20.0485C64.007 20.5991 63.6075 21.0417 63.111 21.3764C62.6252 21.7002 62.1016 21.8622 61.5402 21.8622H58.5607L58.7227 21.5707V24.9226C58.7227 25.2033 58.6363 25.4408 58.4636 25.6351C58.2909 25.8186 58.0642 25.9104 57.7835 25.9104C57.5136 25.9104 57.2923 25.8186 57.1196 25.6351C56.9468 25.4408 56.8605 25.2033 56.8605 24.9226V15.5631C56.8605 15.2824 56.9522 15.0503 57.1358 14.8668C57.3301 14.6725 57.5676 14.5753 57.8482 14.5753H61.5402ZM61.5402 20.0162C61.7454 20.0162 61.9451 19.9298 62.1394 19.7571C62.3337 19.5843 62.4956 19.363 62.6252 19.0932C62.7547 18.8125 62.8195 18.521 62.8195 18.2187C62.8195 17.9057 62.7547 17.6142 62.6252 17.3443C62.4956 17.0744 62.3337 16.8585 62.1394 16.6966C61.9451 16.5239 61.7454 16.4375 61.5402 16.4375H58.5283L58.7227 16.146V20.2752L58.5445 20.0162H61.5402Z" fill="#222222"/>
</svg>
