<?xml version="1.0" encoding="UTF-8"?>
<svg id="_レイヤー_1" data-name="レイヤー_1" xmlns="http://www.w3.org/2000/svg" xmlns:xlink="http://www.w3.org/1999/xlink" version="1.1" viewBox="0 0 1920 429.57">
  <!-- Generator: Adobe Illustrator 29.5.0, SVG Export Plug-In . SVG Version: 2.1.0 Build 137)  -->
  <defs>
    <style>
      .st0 {
        fill: none;
      }

      .st1 {
        clip-path: url(#clippath-1);
      }

      .st2 {
        clip-path: url(#clippath-2);
      }

      .st3 {
        fill: #0a6bff;
      }

      .st4 {
        clip-path: url(#clippath);
      }
    </style>
    <clipPath id="clippath">
      <rect class="st0" width="1920" height="429.57"/>
    </clipPath>
    <clipPath id="clippath-1">
      <rect class="st0" x="-5" y="-5" width="1930" height="439.57"/>
    </clipPath>
    <clipPath id="clippath-2">
      <rect class="st0" x="-5" y="-5" width="1930" height="439.57"/>
    </clipPath>
  </defs>
  <g>
    <path class="st3" d="M97.11,54.74v81.43c0,35.35,41.9,44.43,79.28,44.43s45.36.76,60.98-7.97c13.9-7.77,25.29-25.27,25.29-40.48V58.21c0-16.06,19.6-17.43,29.69-17.55v-.74h-60.12v.74c11.33.09,28.9,1.26,28.9,17.24v73.27c-.22,19.2-18.05,45.31-53.18,45.54-8.37.05-33.83,0-33.83-38.25V62.63c0-20.99,12.57-21.94,30.32-21.98v-.74H67.11v.74c13.4.05,30.01.85,30.01,14.08Z"/>
    <path class="st3" d="M465.11,40.34c24.98,0,33.48.28,33.48,8.64v40.37l-70.64-47.47c-2.34-1.5-4.04-1.96-7.26-1.96h-123.8v.42c22.36,0,30.8.28,30.8,7.82v44.92c0,11.06-10.66,11.44-33.96,11.45v.51h66.28v-.51c-22.93-.01-31.59-.36-31.59-10.27v-49.77l90.32,59.93c.75.54,1.25.63,2.11.63h75.02c2.16,0,3.61-.83,3.61-2.07v-52.55c0-9.7,14.76-10.08,35.54-10.09v-.42h-69.91v.42Z"/>
    <path class="st3" d="M293.75,242.3c0-29.32-39.8-59.2-78.86-59.2H67.97v.73c24.8.01,30.05.4,30.05,13.45v84.5c0,7.59-4.94,13.77-11.01,13.77h-19.91v.89h148.5c48.91,0,78.14-27.53,78.14-54.15ZM173.27,294.77h-2.34v-110.14h2.34c20.03,0,44.96,0,44.96,55.15s-22.86,54.99-44.96,54.99Z"/>
    <path class="st3" d="M494.21,130.8c-21.42-15.17-54.99-23.18-97.08-23.18h-19.75c-38.72,0-69.68,7.15-89.56,20.69-16.26,11.07-22.06,24.3-22.06,32.98,0,60.46,94.25,60.46,134.49,60.46s72.87-6.81,93.53-20.23c21.15-13.74,23.43-29.84,23.43-36.13,0-8.44-6.03-22.56-23.02-34.59ZM390.13,220.54c-19.27,0-33.25-26.58-33.25-63.2,0-27.48,13.42-48.2,31.22-48.2,20.77,0,34.73,23.11,34.73,57.52,0,48.64-22.86,53.89-32.7,53.89Z"/>
    <path class="st3" d="M322.24,299.49h-73.93v.58c26.41.01,35.41.39,35.41,11.96v55.89l-74.69-65.72c-2.47-2.08-4.27-2.72-7.67-2.72H70.45v.58c23.64.01,32.57.39,32.57,10.83v62.19c0,15.31-11.28,15.84-35.91,15.85v.71h70.09v-.71c-24.25-.02-33.4-.5-33.4-14.22v-68.9l95.5,82.96c.79.74,1.33.87,2.23.87h79.33c2.28,0,3.81-1.15,3.81-2.87v-72.75c0-13.43,15.6-13.95,37.58-13.97v-.58Z"/>
    <path class="st3" d="M466.23,361.14c-26.35,26.75-41.46,26.75-56.06,26.75h-4.97v-81.57h2.56c7.99,0,26.35,0,49.09,39.89v-82.53c-6.65,12.85-24.03,40.88-49.09,40.88h-2.56v-79.49h2.56c12.66,0,39.01,0,62.64,25.66l42.52,45.93v-68.32c0-3.74-.44-4.34-3.13-4.34h-216.03v1.07c27.76.02,33.64.76,33.64,26.13v111.49c0,24.93-6.01,25.64-34.43,25.66v1.3h221.25c.85,0,1.29-.11,1.49-.19.03-.22.07-.64.07-1.38v-77.4s-49.53,50.46-49.53,50.46Z"/>
    <path class="st3" d="M693.14,278.49c0,14.64-7.02,24.71-20.44,24.71s-20.44-10.07-20.44-24.71V116.53h-30.5v157.39c0,46.97,28.06,59.17,50.94,59.17s50.94-12.2,50.94-59.17V116.53h-30.5v161.96Z"/>
    <path class="st3" d="M816.18,171.44c-6.1,0-19.22,1.53-30.2,16.17v-13.73h-30.5v151.29h30.5v-103.71c0-4.88.3-10.37,4.88-15.25,2.14-2.14,5.8-4.88,11.59-4.88,4.58,0,7.93,1.52,10.68,4.58,3.66,3.96,3.97,8.54,3.97,12.2v107.06h30.5v-119.26c0-7.32-.92-17.39-8.85-25.62-4.88-5.19-12.2-8.85-22.57-8.85Z"/>
    <path class="st3" d="M942.15,186.08c-2.75-3.36-6.1-6.41-10.07-8.85-5.49-3.36-11.29-5.8-20.13-5.8s-16.47,2.44-22.57,8.85c-7.93,8.24-8.85,18.3-8.85,25.62v78.69c0,9.76.31,22.27,7.02,31.42,2.44,3.35,10.07,11.59,25.32,11.59,6.1,0,13.12-1.53,18.61-5.19,3.97-2.74,7.93-6.71,10.37-10.68h.31v13.42h30.5V111.66h-30.5v74.42ZM942.15,277.59c0,4.88-.31,10.37-4.88,15.25-2.14,2.14-5.8,4.88-11.59,4.88-4.57,0-7.93-1.53-10.68-4.58-3.96-4.27-3.96-8.54-3.96-13.73v-61.31c0-3.66.3-8.24,3.96-12.2,2.74-3.05,6.1-4.58,10.68-4.58,5.8,0,9.46,2.74,11.59,4.88,4.58,4.88,4.88,10.37,4.88,15.25v56.12Z"/>
    <path class="st3" d="M1081.54,182.12c-8.23-7.02-19.83-10.68-31.11-10.68s-22.88,3.66-31.11,10.68c-14.03,11.9-14.95,28.67-14.95,40.57v53.68c0,11.9.92,28.67,14.95,40.57,8.24,7.02,19.83,10.68,31.11,10.68s22.88-3.66,31.11-10.68c14.03-11.9,14.95-28.67,14.95-40.57v-53.68c0-11.9-.92-28.67-14.95-40.57ZM1065.99,278.2c0,7.02-1.83,12.2-4.58,15.25-2.44,2.44-6.41,4.27-10.98,4.27s-8.54-1.83-10.98-4.27c-2.74-3.05-4.57-8.24-4.57-15.25v-57.34c0-7.02,1.83-12.2,4.57-15.25,2.44-2.44,6.41-4.27,10.98-4.27s8.54,1.83,10.98,4.27c2.74,3.05,4.58,8.24,4.58,15.25v57.34Z"/>
    <path class="st3" d="M1188.91,171.44c-6.1,0-19.22,1.53-30.2,16.17v-13.73h-30.5v151.29h30.5v-103.71c0-4.88.31-10.37,4.88-15.25,2.14-2.14,5.8-4.88,11.59-4.88,4.58,0,7.93,1.52,10.68,4.58,3.66,3.96,3.97,8.54,3.97,12.2v107.06h30.5v-119.26c0-7.32-.92-17.39-8.85-25.62-4.88-5.19-12.2-8.85-22.57-8.85Z"/>
    <path class="st3" d="M1328.91,182.42c-7.63-6.71-18.61-10.98-31.72-10.98s-23.18,4.27-30.2,10.37c-12.81,10.98-14.95,25.93-14.95,36.6v57.95c0,9.15.3,24.71,10.98,36.6,7.93,8.85,21.05,14.64,35.08,14.64,10.37,0,20.74-3.05,28.37-8.54,14.95-10.68,17.08-25.62,17.08-36.91v-1.22h-30.5c0,3.36-.92,7.32-2.75,10.37-3.05,4.57-7.02,6.41-12.2,6.41-4.88,0-9.15-1.53-11.59-4.27-3.66-3.66-3.96-8.54-3.96-13.12v-19.52h61.61v-39.65c0-11.9-1.83-27.15-15.25-38.74ZM1313.66,237.33h-31.11v-18.61c0-3.96.61-8.54,3.66-12.2,2.44-3.05,6.71-5.18,11.9-5.18,4.88,0,8.85,1.83,11.29,4.27,3.66,3.66,4.27,7.93,4.27,11.9v19.83Z"/>
    <polygon class="st3" points="1477.75 111.66 1447.25 111.66 1447.25 325.17 1542.41 325.17 1542.41 296.19 1477.75 296.19 1477.75 111.66"/>
    <polygon class="st3" points="1596.89 111.66 1566.39 111.66 1566.39 325.17 1661.55 325.17 1661.55 296.19 1596.89 296.19 1596.89 111.66"/>
    <path class="st3" d="M1755.99,273.62c0,10.37-2.74,15.25-4.27,17.39-3.66,4.88-10.37,7.32-17.08,7.32-8.54,0-13.42-4.58-15.56-7.62-3.96-5.49-3.96-11.9-3.96-18.91v-105.23c0-7.32.3-14.95,5.19-21.05,3.05-3.66,7.93-7.02,15.86-7.02,9.76,0,14.34,5.49,15.86,7.63,2.74,3.97,3.96,9.76,3.96,14.03v12.2h29.59v-14.64c0-14.95-6.1-27.76-13.73-35.38-9.15-8.85-24.1-13.73-36.91-13.73-11.29,0-25.32,3.97-34.77,12.51-13.73,11.9-15.56,27.76-15.56,41.79v110.72c0,10.98-.31,25.62,10.68,38.43,6.71,7.93,18.3,16.17,38.43,16.17s33.55-7.32,39.96-14.34c5.49-5.8,12.81-18,12.81-39.04v-8.85h-30.5v7.62Z"/>
    <polygon class="st3" points="1813.46 291.62 1813.46 333.95 1847.02 318.16 1847.02 291.62 1813.46 291.62"/>
  </g>
</svg>