<svg width="150" height="123" viewBox="0 0 150 123" fill="none" xmlns="http://www.w3.org/2000/svg">
<rect width="83.6426" height="83.8636" transform="translate(34)" fill="white"/>
<path d="M86.4129 26.7191C87.1115 26.7191 87.6791 26.952 88.1157 27.4177C88.5523 27.8834 88.7706 28.4655 88.7706 29.1641V54.6178C88.7706 55.3745 88.5086 56.0149 87.9847 56.5388C87.4899 57.0336 86.8641 57.281 86.1073 57.281C85.7289 57.281 85.336 57.2228 84.9285 57.1064C84.5501 56.9609 84.259 56.7717 84.0553 56.5388L66.897 34.7525L68.0321 34.054V54.8361C68.0321 55.5346 67.7993 56.1168 67.3336 56.5825C66.897 57.0482 66.3148 57.281 65.5872 57.281C64.8886 57.281 64.321 57.0482 63.8844 56.5825C63.4478 56.1168 63.2295 55.5346 63.2295 54.8361V29.3824C63.2295 28.6256 63.4769 27.9998 63.9717 27.505C64.4957 26.9811 65.136 26.7191 65.8928 26.7191C66.3003 26.7191 66.7223 26.8064 67.1589 26.9811C67.5955 27.1266 67.9157 27.3595 68.1194 27.6796L84.7538 48.8983L84.0116 49.4223V29.1641C84.0116 28.4655 84.2299 27.8834 84.6665 27.4177C85.1031 26.952 85.6853 26.7191 86.4129 26.7191Z" fill="#222222"/>
<path d="M150 117.469C150 118.56 149.754 119.526 149.263 120.364C148.785 121.19 148.135 121.835 147.311 122.301C146.502 122.767 145.592 123 144.583 123C143.574 123 142.658 122.767 141.835 122.301C141.025 121.835 140.374 121.19 139.883 120.364C139.405 119.526 139.166 118.56 139.166 117.469C139.166 116.377 139.405 115.419 139.883 114.594C140.374 113.755 141.025 113.103 141.835 112.637C142.658 112.158 143.574 111.918 144.583 111.918C145.592 111.918 146.502 112.158 147.311 112.637C148.135 113.103 148.785 113.755 149.263 114.594C149.754 115.419 150 116.377 150 117.469ZM147.61 117.469C147.61 116.79 147.471 116.204 147.192 115.712C146.926 115.206 146.561 114.813 146.097 114.534C145.645 114.254 145.141 114.114 144.583 114.114C144.026 114.114 143.514 114.254 143.05 114.534C142.598 114.813 142.233 115.206 141.954 115.712C141.689 116.204 141.556 116.79 141.556 117.469C141.556 118.135 141.689 118.72 141.954 119.226C142.233 119.719 142.598 120.105 143.05 120.384C143.514 120.664 144.026 120.804 144.583 120.804C145.141 120.804 145.645 120.664 146.097 120.384C146.561 120.105 146.926 119.719 147.192 119.226C147.471 118.72 147.61 118.135 147.61 117.469Z" fill="white"/>
<path d="M136.113 121.582C136.113 121.928 136 122.221 135.774 122.461C135.548 122.687 135.263 122.8 134.918 122.8C134.573 122.8 134.287 122.687 134.061 122.461C133.836 122.221 133.723 121.928 133.723 121.582V113.336C133.723 112.99 133.836 112.703 134.061 112.477C134.287 112.237 134.573 112.118 134.918 112.118C135.263 112.118 135.548 112.237 135.774 112.477C136 112.703 136.113 112.99 136.113 113.336V121.582ZM134.898 110.82C134.447 110.82 134.128 110.747 133.942 110.6C133.756 110.454 133.663 110.194 133.663 109.821V109.442C133.663 109.056 133.763 108.796 133.962 108.663C134.174 108.517 134.493 108.444 134.918 108.444C135.383 108.444 135.708 108.517 135.894 108.663C136.08 108.81 136.172 109.069 136.172 109.442V109.821C136.172 110.207 136.073 110.474 135.874 110.62C135.675 110.753 135.349 110.82 134.898 110.82Z" fill="white"/>
<path d="M128.883 108.024C129.228 108.024 129.513 108.137 129.739 108.364C129.965 108.59 130.078 108.883 130.078 109.242V121.582C130.078 121.928 129.965 122.221 129.739 122.461C129.513 122.687 129.228 122.8 128.883 122.8C128.538 122.8 128.252 122.687 128.026 122.461C127.801 122.221 127.688 121.928 127.688 121.582V120.604L128.126 120.784C128.126 120.957 128.033 121.17 127.847 121.422C127.661 121.662 127.409 121.902 127.09 122.141C126.772 122.381 126.393 122.587 125.955 122.76C125.53 122.92 125.066 123 124.561 123C123.645 123 122.815 122.767 122.072 122.301C121.328 121.822 120.738 121.17 120.299 120.344C119.875 119.506 119.662 118.547 119.662 117.469C119.662 116.377 119.875 115.419 120.299 114.594C120.738 113.755 121.322 113.103 122.052 112.637C122.782 112.158 123.592 111.918 124.482 111.918C125.052 111.918 125.577 112.004 126.055 112.178C126.533 112.351 126.944 112.57 127.29 112.836C127.648 113.103 127.92 113.376 128.106 113.655C128.305 113.921 128.405 114.148 128.405 114.334L127.688 114.594V109.242C127.688 108.896 127.801 108.61 128.026 108.384C128.252 108.144 128.538 108.024 128.883 108.024ZM124.86 120.804C125.444 120.804 125.955 120.657 126.393 120.364C126.831 120.071 127.17 119.672 127.409 119.166C127.661 118.66 127.787 118.095 127.787 117.469C127.787 116.83 127.661 116.258 127.409 115.752C127.17 115.246 126.831 114.847 126.393 114.554C125.955 114.261 125.444 114.114 124.86 114.114C124.289 114.114 123.784 114.261 123.346 114.554C122.908 114.847 122.563 115.246 122.311 115.752C122.072 116.258 121.952 116.83 121.952 117.469C121.952 118.095 122.072 118.66 122.311 119.166C122.563 119.672 122.908 120.071 123.346 120.364C123.784 120.657 124.289 120.804 124.86 120.804Z" fill="white"/>
<path d="M115.283 112.118C115.628 112.118 115.913 112.238 116.139 112.477C116.365 112.703 116.477 112.99 116.477 113.336V118.408C116.477 119.819 116.086 120.937 115.302 121.762C114.519 122.587 113.391 123 111.917 123C110.443 123 109.315 122.587 108.531 121.762C107.761 120.937 107.376 119.819 107.376 118.408V113.336C107.376 112.99 107.489 112.703 107.715 112.477C107.941 112.238 108.226 112.118 108.571 112.118C108.916 112.118 109.202 112.238 109.428 112.477C109.653 112.703 109.766 112.99 109.766 113.336V118.408C109.766 119.22 109.945 119.825 110.304 120.225C110.662 120.611 111.2 120.804 111.917 120.804C112.647 120.804 113.192 120.611 113.55 120.225C113.908 119.825 114.088 119.22 114.088 118.408V113.336C114.088 112.99 114.201 112.703 114.426 112.477C114.652 112.238 114.937 112.118 115.283 112.118Z" fill="white"/>
<path d="M98.1522 112.317H102.872C103.191 112.317 103.456 112.424 103.669 112.637C103.881 112.85 103.987 113.116 103.987 113.436C103.987 113.742 103.881 114.001 103.669 114.214C103.456 114.414 103.191 114.514 102.872 114.514H98.1522C97.8336 114.514 97.5681 114.407 97.3556 114.194C97.1432 113.981 97.037 113.715 97.037 113.396C97.037 113.089 97.1432 112.837 97.3556 112.637C97.5681 112.424 97.8336 112.317 98.1522 112.317ZM100.283 109.821C100.628 109.821 100.907 109.941 101.12 110.181C101.345 110.407 101.458 110.693 101.458 111.039V119.925C101.458 120.111 101.491 120.264 101.558 120.384C101.637 120.504 101.737 120.591 101.856 120.644C101.989 120.697 102.129 120.724 102.275 120.724C102.434 120.724 102.58 120.697 102.713 120.644C102.846 120.577 102.998 120.544 103.171 120.544C103.357 120.544 103.523 120.63 103.669 120.804C103.828 120.977 103.908 121.216 103.908 121.522C103.908 121.895 103.702 122.201 103.29 122.441C102.892 122.68 102.46 122.8 101.996 122.8C101.717 122.8 101.405 122.78 101.06 122.74C100.728 122.687 100.409 122.574 100.104 122.401C99.8118 122.215 99.5662 121.935 99.367 121.562C99.1679 121.19 99.0683 120.677 99.0683 120.025V111.039C99.0683 110.693 99.1812 110.407 99.4069 110.181C99.6458 109.941 99.9379 109.821 100.283 109.821Z" fill="white"/>
<path d="M89.635 123C88.7056 123 87.8692 122.887 87.1257 122.661C86.3822 122.421 85.6719 122.008 84.9948 121.423C84.8222 121.276 84.6894 121.11 84.5965 120.923C84.5036 120.737 84.4571 120.551 84.4571 120.364C84.4571 120.058 84.5633 119.792 84.7757 119.566C85.0014 119.326 85.2802 119.206 85.6121 119.206C85.8644 119.206 86.0901 119.286 86.2893 119.446C86.7938 119.858 87.2916 120.171 87.7829 120.384C88.2874 120.597 88.9047 120.704 89.635 120.704C90.1262 120.704 90.5776 120.631 90.9892 120.484C91.4007 120.324 91.7327 120.118 91.9849 119.865C92.2372 119.599 92.3633 119.299 92.3633 118.967C92.3633 118.567 92.2438 118.228 92.0048 117.948C91.7658 117.669 91.4007 117.436 90.9095 117.249C90.4183 117.05 89.7943 116.897 89.0375 116.79C88.3206 116.684 87.6899 116.524 87.1456 116.311C86.6013 116.085 86.1432 115.805 85.7715 115.472C85.413 115.126 85.1408 114.727 84.955 114.274C84.7691 113.808 84.6761 113.289 84.6761 112.717C84.6761 111.851 84.8952 111.113 85.3333 110.5C85.7847 109.888 86.3888 109.422 87.1456 109.103C87.9024 108.783 88.7388 108.623 89.6549 108.623C90.5179 108.623 91.3144 108.757 92.0447 109.023C92.7881 109.276 93.3922 109.602 93.8569 110.001C94.2419 110.307 94.4344 110.66 94.4344 111.059C94.4344 111.352 94.3216 111.619 94.0959 111.858C93.8702 112.098 93.6047 112.218 93.2993 112.218C93.1001 112.218 92.9209 112.158 92.7616 112.038C92.5492 111.851 92.2637 111.678 91.9053 111.519C91.5468 111.346 91.1684 111.206 90.7701 111.099C90.3718 110.98 90.0001 110.92 89.6549 110.92C89.084 110.92 88.5994 110.993 88.2011 111.139C87.8161 111.286 87.524 111.485 87.3248 111.738C87.1257 111.991 87.0261 112.284 87.0261 112.617C87.0261 113.016 87.139 113.349 87.3647 113.615C87.6036 113.868 87.9422 114.075 88.3803 114.234C88.8184 114.381 89.3429 114.514 89.9536 114.634C90.7502 114.78 91.4472 114.953 92.0447 115.153C92.6554 115.352 93.1599 115.612 93.5582 115.932C93.9565 116.238 94.2552 116.63 94.4544 117.11C94.6535 117.576 94.7531 118.148 94.7531 118.827C94.7531 119.692 94.5141 120.438 94.0361 121.063C93.5582 121.689 92.9276 122.168 92.1442 122.501C91.3742 122.834 90.5378 123 89.635 123Z" fill="white"/>
<path d="M68.9542 112.317H73.6741C73.9927 112.317 74.2582 112.424 74.4707 112.637C74.6831 112.85 74.7893 113.116 74.7893 113.436C74.7893 113.742 74.6831 114.001 74.4707 114.214C74.2582 114.414 73.9927 114.514 73.6741 114.514H68.9542C68.6356 114.514 68.3701 114.407 68.1577 114.194C67.9452 113.981 67.839 113.715 67.839 113.396C67.839 113.089 67.9452 112.837 68.1577 112.637C68.3701 112.424 68.6356 112.317 68.9542 112.317ZM71.0851 109.821C71.4303 109.821 71.7091 109.941 71.9216 110.181C72.1473 110.407 72.2601 110.693 72.2601 111.039V119.925C72.2601 120.111 72.2933 120.264 72.3597 120.384C72.4394 120.504 72.5389 120.591 72.6584 120.644C72.7912 120.697 72.9306 120.724 73.0766 120.724C73.2359 120.724 73.382 120.697 73.5148 120.644C73.6475 120.577 73.8002 120.544 73.9728 120.544C74.1587 120.544 74.3246 120.63 74.4707 120.804C74.63 120.977 74.7096 121.216 74.7096 121.522C74.7096 121.895 74.5039 122.201 74.0923 122.441C73.694 122.68 73.2625 122.8 72.7978 122.8C72.519 122.8 72.207 122.78 71.8618 122.74C71.5299 122.687 71.2113 122.574 70.9059 122.401C70.6138 122.215 70.3682 121.935 70.1691 121.562C69.9699 121.19 69.8703 120.677 69.8703 120.025V111.039C69.8703 110.693 69.9832 110.407 70.2089 110.181C70.4479 109.941 70.7399 109.821 71.0851 109.821Z" fill="white"/>
<path d="M61.4722 111.918C62.4547 111.918 63.1982 112.124 63.7027 112.537C64.2205 112.95 64.5723 113.502 64.7582 114.194C64.9573 114.873 65.0569 115.632 65.0569 116.471V121.582C65.0569 121.928 64.944 122.221 64.7183 122.461C64.4926 122.687 64.2072 122.8 63.862 122.8C63.5168 122.8 63.2314 122.687 63.0056 122.461C62.7799 122.221 62.6671 121.928 62.6671 121.582V116.471C62.6671 116.031 62.6074 115.639 62.4879 115.292C62.3817 114.933 62.1825 114.647 61.8904 114.434C61.5983 114.221 61.1801 114.114 60.6358 114.114C60.1047 114.114 59.6533 114.221 59.2816 114.434C58.9231 114.647 58.6443 114.933 58.4451 115.292C58.2593 115.639 58.1663 116.031 58.1663 116.471V121.582C58.1663 121.928 58.0535 122.221 57.8278 122.461C57.6021 122.687 57.3166 122.8 56.9714 122.8C56.6262 122.8 56.3408 122.687 56.1151 122.461C55.8894 122.221 55.7765 121.928 55.7765 121.582V113.336C55.7765 112.99 55.8894 112.703 56.1151 112.477C56.3408 112.237 56.6262 112.118 56.9714 112.118C57.3166 112.118 57.6021 112.237 57.8278 112.477C58.0535 112.703 58.1663 112.99 58.1663 113.336V114.194L57.8676 114.134C57.9871 113.908 58.1597 113.668 58.3854 113.416C58.6111 113.149 58.8766 112.903 59.182 112.677C59.4874 112.45 59.8325 112.271 60.2176 112.138C60.6026 111.991 61.0208 111.918 61.4722 111.918Z" fill="white"/>
<path d="M50.7968 111.918C51.142 111.918 51.4275 112.031 51.6532 112.257C51.8789 112.484 51.9917 112.777 51.9917 113.136V121.582C51.9917 121.928 51.8789 122.221 51.6532 122.461C51.4275 122.687 51.142 122.8 50.7968 122.8C50.4516 122.8 50.1662 122.687 49.9405 122.461C49.7148 122.221 49.6019 121.928 49.6019 121.582V120.604L50.0401 120.784C50.0401 120.957 49.9471 121.17 49.7613 121.423C49.5754 121.662 49.3231 121.902 49.0045 122.141C48.6859 122.381 48.3075 122.587 47.8693 122.76C47.4445 122.92 46.9798 123 46.4753 123C45.5592 123 44.7294 122.767 43.9859 122.301C43.2425 121.822 42.6516 121.17 42.2135 120.344C41.7887 119.506 41.5762 118.547 41.5762 117.469C41.5762 116.377 41.7887 115.419 42.2135 114.594C42.6516 113.755 43.2358 113.103 43.966 112.637C44.6962 112.158 45.5061 111.918 46.3956 111.918C46.9665 111.918 47.491 112.004 47.9689 112.178C48.4469 112.351 48.8585 112.57 49.2036 112.836C49.5621 113.103 49.8343 113.376 50.0202 113.655C50.2193 113.921 50.3189 114.148 50.3189 114.334L49.6019 114.594V113.136C49.6019 112.79 49.7148 112.504 49.9405 112.277C50.1662 112.038 50.4516 111.918 50.7968 111.918ZM46.774 120.804C47.3582 120.804 47.8693 120.657 48.3075 120.364C48.7456 120.071 49.0842 119.672 49.3231 119.166C49.5754 118.66 49.7015 118.095 49.7015 117.469C49.7015 116.83 49.5754 116.258 49.3231 115.752C49.0842 115.246 48.7456 114.847 48.3075 114.554C47.8693 114.261 47.3582 114.114 46.774 114.114C46.2031 114.114 45.6986 114.261 45.2605 114.554C44.8224 114.847 44.4772 115.246 44.2249 115.752C43.9859 116.258 43.8665 116.83 43.8665 117.469C43.8665 118.095 43.9859 118.66 44.2249 119.166C44.4772 119.672 44.8224 120.071 45.2605 120.364C45.6986 120.657 46.2031 120.804 46.774 120.804Z" fill="white"/>
<path d="M38.2001 121.582C38.2001 121.928 38.0807 122.221 37.8417 122.461C37.616 122.687 37.3305 122.8 36.9853 122.8C36.6534 122.8 36.3746 122.687 36.1489 122.461C35.9232 122.221 35.8104 121.928 35.8104 121.582V109.242C35.8104 108.896 35.9232 108.61 36.1489 108.384C36.3879 108.144 36.68 108.024 37.0252 108.024C37.3704 108.024 37.6492 108.144 37.8616 108.384C38.0873 108.61 38.2001 108.896 38.2001 109.242V121.582Z" fill="white"/>
<path d="M28.3713 108.823C29.0617 108.823 29.7056 109.023 30.303 109.422C30.9138 109.821 31.405 110.361 31.7767 111.039C32.1485 111.718 32.3344 112.477 32.3344 113.316C32.3344 114.141 32.1485 114.893 31.7767 115.572C31.405 116.251 30.9138 116.797 30.303 117.209C29.7056 117.609 29.0617 117.808 28.3713 117.808H24.7069L24.9061 117.449V121.582C24.9061 121.928 24.7999 122.221 24.5875 122.461C24.375 122.687 24.0962 122.8 23.751 122.8C23.4191 122.8 23.1469 122.687 22.9345 122.461C22.7221 122.221 22.6159 121.928 22.6159 121.582V110.041C22.6159 109.695 22.7287 109.409 22.9544 109.182C23.1934 108.943 23.4855 108.823 23.8307 108.823H28.3713ZM28.3713 115.532C28.6235 115.532 28.8692 115.426 29.1081 115.213C29.3471 115 29.5463 114.727 29.7056 114.394C29.8649 114.048 29.9446 113.688 29.9446 113.316C29.9446 112.93 29.8649 112.57 29.7056 112.238C29.5463 111.905 29.3471 111.638 29.1081 111.439C28.8692 111.226 28.6235 111.119 28.3713 111.119H24.6671L24.9061 110.76V115.852L24.687 115.532H28.3713Z" fill="white"/>
<path d="M10.5748 108.823C10.8934 108.823 11.1523 108.93 11.3515 109.143C11.5506 109.356 11.6502 109.622 11.6502 109.941V121.582C11.6502 121.928 11.5307 122.221 11.2917 122.461C11.066 122.687 10.7806 122.8 10.4354 122.8C10.2628 122.8 10.0836 122.774 9.8977 122.72C9.72511 122.654 9.59234 122.567 9.49941 122.461L1.67285 112.497L2.19064 112.178V121.682C2.19064 122.002 2.08443 122.268 1.872 122.481C1.67285 122.694 1.40732 122.8 1.0754 122.8C0.756766 122.8 0.497873 122.694 0.298724 122.481C0.0995746 122.268 0 122.002 0 121.682V110.041C0 109.695 0.112851 109.409 0.338553 109.182C0.577532 108.943 0.869617 108.823 1.21481 108.823C1.40068 108.823 1.59319 108.863 1.79234 108.943C1.99149 109.009 2.13753 109.116 2.23047 109.262L9.81805 118.967L9.47949 119.206V109.941C9.47949 109.622 9.57907 109.356 9.77822 109.143C9.97736 108.93 10.2429 108.823 10.5748 108.823Z" fill="white"/>
</svg>
