<svg width="195" height="48" viewBox="0 0 195 48" fill="none" xmlns="http://www.w3.org/2000/svg">
<rect width="195" height="48" rx="10" fill="#007B47"/>
<path d="M45.1484 30.3906H30.7656V28.5H36.75V25.5547H31.5703V23.7031H36.75V21.1875H31.2344V19.3438H37.4375C37.099 19.0156 36.4062 18.3932 35.3594 17.4766L37.0078 16.1641C38.0911 17.0234 39.1302 17.9349 40.125 18.8984L39.5156 19.3438H44.75V21.1875H39.0703V23.7031H44.1562V25.5547H39.0703V28.5H45.1484V30.3906ZM51.5469 17.1562C51.5208 17.9896 51.474 18.7526 51.4062 19.4453H54.0547V21.3125H51.1641C50.7109 24.349 49.7708 27 48.3438 29.2656L46.6641 28.0312C47.7943 26.2917 48.599 24.0521 49.0781 21.3125H47.1562V19.4453H49.3438C49.4323 18.7005 49.487 17.9141 49.5078 17.0859L51.5469 17.1562ZM59.5703 21.9062L58.2031 23.2031C57.75 22.5625 57.0938 21.8073 56.2344 20.9375C55.3802 20.0677 54.6953 19.4453 54.1797 19.0703L55.2266 17.6172C55.8464 18.013 56.5859 18.638 57.4453 19.4922C58.3099 20.3411 59.0182 21.1458 59.5703 21.9062ZM59.5703 28.3984L58.5547 30.2109C57.7578 29.3464 57.0911 28.7188 56.5547 28.3281C56.5547 29.0521 56.2995 29.6641 55.7891 30.1641C55.2786 30.6641 54.4375 30.9141 53.2656 30.9141C52.3229 30.9141 51.5391 30.6849 50.9141 30.2266C50.2891 29.7682 49.9766 29.1328 49.9766 28.3203C49.9766 27.4505 50.2917 26.763 50.9219 26.2578C51.5521 25.7474 52.3203 25.4922 53.2266 25.4922C53.6432 25.4922 54.026 25.5208 54.375 25.5781V21.5234H56.5391V26.1641C57.3464 26.5703 58.3568 27.3151 59.5703 28.3984ZM54.3672 27.3047C54.0547 27.2161 53.7188 27.1719 53.3594 27.1719C53.0052 27.1719 52.6953 27.263 52.4297 27.4453C52.1693 27.6224 52.0391 27.8698 52.0391 28.1875C52.0391 28.8438 52.4401 29.1719 53.2422 29.1719C53.9922 29.1719 54.3672 28.8672 54.3672 28.2578V27.3047ZM66.3281 28.2812C64.224 28.7292 62.474 29.0417 61.0781 29.2188L60.6797 27.3828L61.9453 27.2266V18.7109H61.0312V17.0625H69.7812L69.7656 18.7109H68.3906V30.8828H66.3281V28.2812ZM63.9609 18.7109V20.3047H66.3281V18.7109H63.9609ZM63.9609 21.8438V23.4609H66.3281V21.8438H63.9609ZM63.9609 26.9375C64.7786 26.8125 65.5677 26.6797 66.3281 26.5391V25.0625H63.9609V26.9375ZM75.4297 19.1562C75.4297 20.6615 75.2682 22.0495 74.9453 23.3203C74.6276 24.5859 74.2031 25.6432 73.6719 26.4922C74.3073 27.2005 75.1875 27.987 76.3125 28.8516L75.0156 30.625C73.9844 29.7708 73.1198 28.9583 72.4219 28.1875C71.6927 29.0104 70.7552 29.8438 69.6094 30.6875L68.5156 29.2344C69.3958 28.6302 70.2839 27.75 71.1797 26.5938C70.0807 24.9323 69.4635 23.013 69.3281 20.8359H68.7734V19.1562H75.4297ZM72.375 24.6797C72.8698 23.638 73.1562 22.3568 73.2344 20.8359H71.2812C71.4115 22.3255 71.776 23.6068 72.375 24.6797ZM81.9922 24.5C81.6745 24.6354 81.2214 24.8021 80.6328 25V29.2812C80.6328 29.7812 80.4688 30.1667 80.1406 30.4375C79.8125 30.7135 79.3906 30.8516 78.875 30.8516H77.125L76.8906 29.0781H78.0859C78.4401 29.0781 78.6172 28.9219 78.6172 28.6094V25.6328C77.987 25.8203 77.4531 25.9661 77.0156 26.0703L76.6172 24.2422C77.0964 24.1536 77.763 24.0078 78.6172 23.8047V21.0625H76.9375V19.4453H78.6172V16.7734H80.6328V19.4453H82.0391V21.0625H80.6328V23.2891C81.1693 23.1432 81.5625 23.0234 81.8125 22.9297L81.9922 24.5ZM84.9219 24.3203C84.4531 26.8828 83.5286 29 82.1484 30.6719L80.6797 29.5234C81.1901 28.8203 81.6276 28.0234 81.9922 27.1328C82.362 26.2422 82.6693 25.2031 82.9141 24.0156C83.1589 22.8229 83.2891 21.1172 83.3047 18.8984H81.9297V17.2344H90.3438L90.6484 17.5078L89.7969 21.0078H91.6406L91.9297 21.3828C91.513 23.6016 90.6693 25.5078 89.3984 27.1016C90.1536 27.7161 91.1198 28.2891 92.2969 28.8203L91.0781 30.7422C89.7135 29.9609 88.6667 29.2448 87.9375 28.5938C86.8802 29.526 85.6615 30.2188 84.2812 30.6719L83.4766 29.0938C84.6901 28.625 85.7318 27.9896 86.6016 27.1875C85.9297 26.3333 85.3698 25.3776 84.9219 24.3203ZM85.3594 18.8984C85.3594 19.0964 85.3542 19.3958 85.3438 19.7969C85.5208 21.1875 85.8568 22.3516 86.3516 23.2891C86.8464 24.2266 87.3698 25.0312 87.9219 25.7031C88.5938 24.7604 89.0755 23.7188 89.3672 22.5781H87.6719L87.4297 22.3047L88.2344 18.8984H85.3594ZM94.8203 25.6719C94.4922 26.3802 94.099 27.0677 93.6406 27.7344L92.5 26.5625C92.9792 25.8698 93.4479 25 93.9062 23.9531C94.3646 22.901 94.6615 22 94.7969 21.25H93.2031V19.6641H94.8203V16.6406H96.6953V19.6641H97.75V21.25H96.6953V22.4297C96.9089 22.7005 97.362 23.1302 98.0547 23.7188L97.4297 25.3125C97.2161 25.1458 96.9714 24.9062 96.6953 24.5938V30.8984H94.8203V25.6719ZM100.898 28.1797V20.1484H102.422V19.3594H97.9766V17.7969H102.422V16.7109H104.469V17.7969H107.797V19.3594H104.469V20.1484H107.141V28.1797H100.898ZM105.188 22.3906V21.5078H102.789V22.3906H105.188ZM102.797 24.5469H105.188V23.5859H102.797V24.5469ZM102.805 26.7734H105.188V25.7812H102.797L102.805 26.7734ZM100.008 30.8203H98.1172V20.375H100.008V28.8359H107.992V30.3516H100.008V30.8203ZM114.938 24.7891C114.677 24.9453 114.195 25.1536 113.492 25.4141V30.8828H111.539V26.0703C110.43 26.4141 109.599 26.6484 109.047 26.7734L108.648 24.8516C109.279 24.7578 110.242 24.5339 111.539 24.1797V21.2031H110.805C110.612 22.2344 110.383 23.013 110.117 23.5391L108.531 22.9922C108.745 22.3932 108.935 21.5651 109.102 20.5078C109.268 19.4505 109.352 18.3906 109.352 17.3281L111.156 17.3984C111.151 18.1432 111.115 18.8464 111.047 19.5078H111.539V16.7422H113.492V19.5078H114.406V20.8047C114.948 19.487 115.339 18.0729 115.578 16.5625L117.625 16.7734C117.589 17.0964 117.487 17.5495 117.32 18.1328H123.32C123.32 20.9401 123.286 23.2344 123.219 25.0156C123.151 26.7917 123.052 28.0339 122.922 28.7422C122.792 29.4453 122.549 29.9531 122.195 30.2656C121.846 30.5833 121.372 30.7422 120.773 30.7422H118.852L118.617 28.8516H120.055C120.305 28.8516 120.508 28.7786 120.664 28.6328C120.826 28.4818 120.948 28.224 121.031 27.8594C121.115 27.4948 121.185 26.8854 121.242 26.0312C121.299 25.1719 121.331 24.1172 121.336 22.8672V19.7344H121.172C121.073 21.8958 120.591 24.026 119.727 26.125C118.867 28.224 117.867 29.7943 116.727 30.8359L115.445 29.6328C116.503 28.5339 117.383 27.0729 118.086 25.25C118.794 23.4271 119.203 21.5885 119.312 19.7344H118.914C118.701 21.3958 118.237 23.0573 117.523 24.7188C116.81 26.375 115.948 27.7526 114.938 28.8516L113.641 27.7344C114.505 26.776 115.237 25.5729 115.836 24.125C116.435 22.6719 116.839 21.2083 117.047 19.7344H116.797L116.273 21.0938C116.122 21.474 115.958 21.8333 115.781 22.1719C115.609 22.5052 115.435 22.8073 115.258 23.0781L113.734 22.1953C113.906 21.9036 114.073 21.5729 114.234 21.2031H113.492V23.6016C114.029 23.4193 114.419 23.2656 114.664 23.1406L114.938 24.7891ZM133.195 28.2109H131.195L131.203 25.1406C129.927 26.0521 129.289 26.9036 129.289 27.6953C129.289 28.4818 129.99 28.875 131.391 28.875L132.07 28.8672C133.935 28.8672 135.32 28.7812 136.227 28.6094L136.312 30.5625C135.12 30.7031 133.951 30.7734 132.805 30.7734C130.607 30.7734 129.133 30.5417 128.383 30.0781C127.633 29.6198 127.258 28.9089 127.258 27.9453C127.258 26.362 128.466 24.8073 130.883 23.2812C130.784 23.1094 130.63 23.0234 130.422 23.0234C130.052 23.0234 129.591 23.1979 129.039 23.5469C128.487 23.8958 127.862 24.4714 127.164 25.2734C126.69 25.8359 126.346 26.2161 126.133 26.4141L124.773 24.9453C126.227 23.6016 127.326 22.1016 128.07 20.4453H125.398V18.5938H128.719C128.917 17.9635 129.062 17.3724 129.156 16.8203L131.188 16.9453C131.068 17.5911 130.948 18.1406 130.828 18.5938H134.867V20.4453H130.227C130.117 20.7161 129.917 21.1328 129.625 21.6953C130.042 21.5234 130.443 21.4375 130.828 21.4375C131.667 21.4375 132.273 21.7656 132.648 22.4219C133.18 22.1302 134.305 21.5573 136.023 20.7031L136.734 22.5625C135.932 22.9115 134.729 23.4583 133.125 24.2031C133.167 24.5938 133.188 25.013 133.188 25.4609L133.195 28.2109ZM150.859 24.4297L150.336 26.4688L148.938 25.8047C148.443 28.1641 147.393 29.9245 145.789 31.0859L144.195 29.6641C145.013 28.9453 145.625 28.2318 146.031 27.5234C146.438 26.8099 146.724 25.9922 146.891 25.0703C146.068 24.6849 145.292 24.4245 144.562 24.2891C143.411 28.0755 141.964 29.9688 140.219 29.9688C139.599 29.9688 139.099 29.7214 138.719 29.2266C138.339 28.7266 138.148 28.1146 138.148 27.3906C138.148 26.1458 138.594 24.9792 139.484 23.8906C140.375 22.8021 141.518 22.2578 142.914 22.2578H143.008C143.164 21.4818 143.286 20.5859 143.375 19.5703H139.703V17.7109H145.391L145.633 18.0469C145.581 19.4792 145.393 20.9427 145.07 22.4375C145.706 22.5625 146.388 22.7786 147.117 23.0859C147.143 22.7057 147.156 22.1484 147.156 21.4141C147.156 21.1276 147.154 20.8177 147.148 20.4844H149.273V21.8125C149.279 22.5469 149.263 23.1927 149.227 23.75L150.859 24.4297ZM142.461 24.1562C141.935 24.2083 141.497 24.4375 141.148 24.8438C140.799 25.2448 140.555 25.6875 140.414 26.1719C140.273 26.651 140.203 27.0443 140.203 27.3516C140.203 27.6797 140.273 27.8438 140.414 27.8438C140.977 27.8438 141.659 26.6146 142.461 24.1562ZM159.648 28.5703C160.456 28.0703 160.859 27.2734 160.859 26.1797C160.859 25.4036 160.62 24.7943 160.141 24.3516C159.667 23.9036 159.07 23.6797 158.352 23.6797H158.203C157.891 23.6797 157.521 23.75 157.094 23.8906C156.672 24.0312 156.273 24.2135 155.898 24.4375C155.523 24.6615 155.201 24.8854 154.93 25.1094C154.664 25.3333 154.042 25.8984 153.062 26.8047L151.672 25.2344C155.078 22.3177 157.255 20.4036 158.203 19.4922H152.914V17.6641H160.82L161.758 18.8672C160.857 19.612 159.516 20.7474 157.734 22.2734C158.266 22.1068 158.708 22.0234 159.062 22.0234C160.333 22.0234 161.328 22.375 162.047 23.0781C162.766 23.776 163.125 24.7812 163.125 26.0938C163.125 27.625 162.607 28.8021 161.57 29.625C160.534 30.4427 159.169 30.8516 157.477 30.8516C156.357 30.8516 155.469 30.6328 154.812 30.1953C154.156 29.7578 153.828 29.1172 153.828 28.2734C153.828 27.5911 154.109 27.0182 154.672 26.5547C155.234 26.0859 155.846 25.8516 156.508 25.8516C158.148 25.8516 159.195 26.7578 159.648 28.5703ZM157.727 29.0859C157.492 28.0234 157.065 27.4922 156.445 27.4922C156.268 27.4922 156.107 27.5651 155.961 27.7109C155.82 27.8516 155.75 28.0365 155.75 28.2656C155.75 28.8385 156.216 29.125 157.148 29.125C157.352 29.125 157.544 29.112 157.727 29.0859Z" fill="white"/>
</svg>
