<svg width="195" height="49" viewBox="0 0 195 49" fill="none" xmlns="http://www.w3.org/2000/svg">
<rect y="0.940002" width="195" height="48" rx="10" fill="#007B47"/>
<path d="M37.8438 18.2994C37.526 20.6952 36.8568 22.9009 35.8359 24.9166C36.8464 25.8176 37.8932 26.8619 38.9766 28.0494L37.5391 29.8541C36.9297 29.0207 35.9896 28.0103 34.7188 26.8228C33.1562 29.2343 31.2005 30.8905 28.8516 31.7916L27.6641 29.8541C28.5807 29.5051 29.5104 28.9504 30.4531 28.19C31.3958 27.4244 32.1875 26.4869 32.8281 25.3775C32.1875 24.7733 30.987 23.7968 29.2266 22.4478L30.3281 20.7838C31.7083 21.7577 32.8984 22.677 33.8984 23.5416C34.7734 21.7395 35.3307 19.9009 35.5703 18.0259L37.8438 18.2994ZM52.6562 26.0728H41.1719V23.9947H52.6562V26.0728ZM67.3594 25.4244C66.724 26.94 65.8776 28.2603 64.8203 29.3853C63.763 30.5103 62.5859 31.2629 61.2891 31.6431L60.5078 30.8775V18.4009H62.6875V28.5963C63.9062 27.69 64.9323 26.1874 65.7656 24.0884L67.3594 25.4244ZM59.0078 22.9088C59.0182 25.3567 58.6953 27.2759 58.0391 28.6666C57.388 30.052 56.3854 31.1405 55.0312 31.9322L53.9844 30.0259C54.8958 29.4686 55.5964 28.6431 56.0859 27.5494C56.5807 26.4504 56.8281 24.7811 56.8281 22.5416V18.8619H59.0078V22.9088ZM77.8828 29.5806L77.8047 31.69C77.3464 31.7056 77.0391 31.7134 76.8828 31.7134C75.3359 31.7134 74.1276 31.4452 73.2578 30.9088C72.3932 30.3671 71.7734 29.716 71.3984 28.9556C71.0234 28.19 70.8359 27.3202 70.8359 26.3463C70.8359 24.4088 71.7161 22.6535 73.4766 21.0806L67.8594 21.1509V19.1509H78.8516V21.1666H75.8125C75.1146 21.703 74.4922 22.4348 73.9453 23.3619C73.4036 24.289 73.1328 25.2525 73.1328 26.2525C73.1328 28.5025 74.4036 29.6275 76.9453 29.6275C77.237 29.6275 77.5495 29.6119 77.8828 29.5806ZM80.3672 23.8541L79.25 24.2681C78.8594 23.3046 78.513 22.5207 78.2109 21.9166L79.2812 21.5181C79.6406 22.2004 80.0026 22.9791 80.3672 23.8541ZM78.0156 24.0806L76.8984 24.4791C76.5911 23.7239 76.2292 22.9452 75.8125 22.1431L76.9141 21.7447C77.3984 22.677 77.7656 23.4556 78.0156 24.0806ZM88.0078 31.1041L88.4922 29.2838C89.0443 29.5598 89.5651 29.6978 90.0547 29.6978C90.5964 29.6978 91.026 29.5181 91.3438 29.1588C91.6615 28.7994 91.8203 28.2916 91.8203 27.6353C91.8203 26.8645 91.5859 26.2811 91.1172 25.8853C90.6536 25.4895 90.0052 25.2916 89.1719 25.2916C88.651 25.2916 88.112 25.3619 87.5547 25.5025V29.8072C87.5547 30.4218 87.3385 30.9035 86.9062 31.2525C86.474 31.6015 85.9401 31.7759 85.3047 31.7759C84.4401 31.7759 83.7031 31.4765 83.0938 30.8775C82.4896 30.2785 82.1875 29.5051 82.1875 28.5572C82.1875 27.6249 82.4844 26.7811 83.0781 26.0259C83.6719 25.2655 84.4792 24.6588 85.5 24.2056V22.2369H82.5625V20.4009H85.5V17.9166H87.5547V20.4009H89.9922V22.2369H87.5547V23.6275C88.1276 23.5129 88.7031 23.4556 89.2812 23.4556C90.6667 23.4556 91.7917 23.8124 92.6562 24.5259C93.5208 25.2343 93.9531 26.2473 93.9531 27.565C93.9531 28.841 93.6016 29.8515 92.8984 30.5963C92.1953 31.3358 91.3333 31.7056 90.3125 31.7056C89.5052 31.7056 88.737 31.5051 88.0078 31.1041ZM85.5 26.1978C84.5885 26.8436 84.1328 27.6093 84.1328 28.4947C84.1328 28.8697 84.2448 29.1822 84.4688 29.4322C84.6927 29.6822 84.9297 29.8072 85.1797 29.8072C85.3932 29.8072 85.5 29.6588 85.5 29.3619V26.1978ZM94.375 22.1197L92.875 23.3541C92.5781 22.8853 92.0391 22.1926 91.2578 21.2759C90.4818 20.3541 89.8958 19.7186 89.5 19.3697L90.75 18.0728C91.2917 18.4739 91.9141 19.0702 92.6172 19.8619C93.3203 20.6483 93.9062 21.4009 94.375 22.1197ZM109.672 30.2681C109.672 30.6744 109.5 31.0129 109.156 31.2838C108.818 31.5598 108.409 31.6978 107.93 31.6978H106.125L105.914 29.9634H107.086C107.211 29.9634 107.323 29.9218 107.422 29.8384C107.526 29.7499 107.578 29.6431 107.578 29.5181V23.5338H103.391V17.9166H109.672V30.2681ZM105.391 20.2213H107.578V19.2134H105.391V20.2213ZM107.578 21.2759H105.391V22.2525H107.578V21.2759ZM102.141 23.5338H98.0781V31.8384H95.9766V17.9166H102.141V23.5338ZM100.172 20.2213V19.2134H98.0781V20.2213H100.172ZM100.172 22.2525V21.2759H98.0781V22.2525H100.172ZM101.305 29.6119V30.0338H99.2734V24.5572H106.234V29.6119H101.305ZM101.305 28.0338H104.234V26.0494H101.305V28.0338ZM118.938 26.4634C118.719 27.1874 118.411 27.9973 118.016 28.8931C117.625 29.7838 117.25 30.4426 116.891 30.8697C116.531 31.2916 116.109 31.5025 115.625 31.5025C114.609 31.5025 113.737 30.8098 113.008 29.4244C112.284 28.0338 111.927 26.4374 111.938 24.6353C111.927 24.0468 111.977 23.1744 112.086 22.0181C112.185 20.8567 112.273 19.9869 112.352 19.4088H114.555C114.461 19.9348 114.354 20.7968 114.234 21.9947C114.12 23.1041 114.068 23.9686 114.078 24.5884C114.094 25.802 114.268 26.8593 114.602 27.7603C114.94 28.6561 115.242 29.1041 115.508 29.1041C115.846 29.1041 116.375 27.9166 117.094 25.5416L118.938 26.4634ZM123.914 29.5181L121.672 29.5103C121.786 27.9009 121.661 26.2629 121.297 24.5963C120.938 22.9244 120.367 21.4869 119.586 20.2838L121.547 19.44C123.396 22.2473 124.185 25.6067 123.914 29.5181ZM136.977 24.0025H128.656V23.0806C127.62 23.7473 126.659 24.2603 125.773 24.6197L124.812 22.9791C125.969 22.5155 127.172 21.8072 128.422 20.8541C129.672 19.9009 130.708 18.8489 131.531 17.6978H133.867C134.362 18.4218 135.216 19.2473 136.43 20.1744C137.643 21.1015 139.083 21.9114 140.75 22.6041L139.609 24.5416C138.807 24.2186 137.93 23.7577 136.977 23.1588V24.0025ZM129.898 22.2213H135.609C134.375 21.3046 133.411 20.3983 132.719 19.5025C132 20.4608 131.06 21.3671 129.898 22.2213ZM136.477 30.9244H129.008V31.6666H126.766V25.2134H138.703V31.6275H136.477V30.9244ZM129.008 29.1978H136.477V26.94H129.008V29.1978ZM143.617 27.3463C142.977 28.5233 142.427 29.4608 141.969 30.1588L141.008 28.4478C141.628 27.5416 142.497 26.0051 143.617 23.8384V22.065H141.469V20.2994H143.617V17.7447H145.781V22.1353C147.031 20.7759 148.323 20.0963 149.656 20.0963C150.812 20.0963 151.747 20.5676 152.461 21.5103C153.174 22.453 153.531 23.6744 153.531 25.1744C153.531 26.1952 153.305 27.1952 152.852 28.1744C152.404 29.1483 151.703 29.9556 150.75 30.5963C149.802 31.2317 148.615 31.5806 147.188 31.6431L146.797 29.8072C147.76 29.6874 148.495 29.5259 149 29.3228C149.505 29.1197 149.938 28.828 150.297 28.4478C150.656 28.0624 150.924 27.6145 151.102 27.1041C151.279 26.5884 151.37 26.0051 151.375 25.3541V25.1744C151.375 24.2369 151.203 23.4582 150.859 22.8384C150.516 22.2134 150.047 21.9009 149.453 21.9009C148.13 21.9009 146.906 22.8436 145.781 24.7291V31.7759H143.617V27.3463ZM166.023 31.5338C164.68 31.591 163.523 31.6197 162.555 31.6197C160.935 31.6197 159.779 31.5442 159.086 31.3931C158.393 31.2473 157.841 30.9088 157.43 30.3775C157.023 29.8463 156.82 29.0624 156.82 28.0259V23.3853H154.758V21.4791H156.82V18.4009H158.992V21.4791H163.203C163.193 20.4895 163.151 19.44 163.078 18.3306L165.211 18.19C165.289 19.1848 165.328 20.2811 165.328 21.4791H167.492V23.3853H165.297C165.219 25.0624 165.122 26.1353 165.008 26.6041C164.898 27.0676 164.69 27.4374 164.383 27.7134C164.081 27.9895 163.69 28.1275 163.211 28.1275C162.773 28.1275 162.271 27.9556 161.703 27.6119C161.135 27.2681 160.609 26.8306 160.125 26.2994L160.891 24.6978C161.271 25.0624 161.646 25.3541 162.016 25.5728C162.385 25.7864 162.628 25.8931 162.742 25.8931C162.831 25.8931 162.901 25.8645 162.953 25.8072C163.005 25.7447 163.036 25.6692 163.047 25.5806C163.062 25.4869 163.086 25.2134 163.117 24.7603C163.154 24.3072 163.18 23.8489 163.195 23.3853H158.992V28.0806C158.992 29.0025 159.458 29.4973 160.391 29.565L160.594 29.5728C161.26 29.6145 161.992 29.6353 162.789 29.6353C163.982 29.6353 165.06 29.5806 166.023 29.4713V31.5338Z" fill="white"/>
</svg>
