<svg width="71" height="58" viewBox="0 0 71 58" fill="none" xmlns="http://www.w3.org/2000/svg">
<rect width="38" height="39" transform="translate(16.5)" fill="white"/>
<path d="M41.5949 11C42.0191 11 42.3639 11.1414 42.629 11.4243C42.8942 11.7071 43.0268 12.0607 43.0268 12.485V27.9444C43.0268 28.404 42.8677 28.7929 42.5495 29.1111C42.2489 29.4117 41.8689 29.5619 41.4092 29.5619C41.1794 29.5619 40.9408 29.5266 40.6933 29.4559C40.4635 29.3675 40.2867 29.2526 40.1629 29.1111L29.7417 15.8791L30.4312 15.4549V28.077C30.4312 28.5012 30.2898 28.8548 30.0069 29.1377C29.7417 29.4205 29.3882 29.5619 28.9462 29.5619C28.522 29.5619 28.1772 29.4205 27.9121 29.1377C27.6469 28.8548 27.5143 28.5012 27.5143 28.077V12.6175C27.5143 12.1579 27.6646 11.7778 27.9651 11.4773C28.2833 11.1591 28.6722 11 29.1319 11C29.3793 11 29.6357 11.053 29.9008 11.1591C30.166 11.2475 30.3605 11.3889 30.4842 11.5834L40.5872 24.4707L40.1364 24.7889V12.485C40.1364 12.0607 40.269 11.7071 40.5342 11.4243C40.7993 11.1414 41.1529 11 41.5949 11Z" fill="#222222"/>
<path d="M70.2561 55.3768C70.2561 55.8826 70.1423 56.3299 69.9146 56.7185C69.6931 57.101 69.3917 57.4002 69.0102 57.6161C68.6349 57.832 68.2134 57.9399 67.7458 57.9399C67.2782 57.9399 66.8537 57.832 66.4723 57.6161C66.097 57.4002 65.7955 57.101 65.5678 56.7185C65.3463 56.3299 65.2356 55.8826 65.2356 55.3768C65.2356 54.8709 65.3463 54.4268 65.5678 54.0443C65.7955 53.6557 66.097 53.3534 66.4723 53.1375C66.8537 52.9154 67.2782 52.8044 67.7458 52.8044C68.2134 52.8044 68.6349 52.9154 69.0102 53.1375C69.3917 53.3534 69.6931 53.6557 69.9146 54.0443C70.1423 54.4268 70.2561 54.8709 70.2561 55.3768ZM69.1486 55.3768C69.1486 55.0622 69.084 54.7907 68.9548 54.5625C68.8318 54.3281 68.6626 54.1461 68.4472 54.0166C68.2381 53.887 68.0043 53.8222 67.7458 53.8222C67.4874 53.8222 67.2506 53.887 67.0352 54.0166C66.826 54.1461 66.6568 54.3281 66.5276 54.5625C66.4046 54.7907 66.3431 55.0622 66.3431 55.3768C66.3431 55.6852 66.4046 55.9567 66.5276 56.1911C66.6568 56.4193 66.826 56.5982 67.0352 56.7278C67.2506 56.8573 67.4874 56.9221 67.7458 56.9221C68.0043 56.9221 68.2381 56.8573 68.4472 56.7278C68.6626 56.5982 68.8318 56.4193 68.9548 56.1911C69.084 55.9567 69.1486 55.6852 69.1486 55.3768Z" fill="white"/>
<path d="M63.8205 57.283C63.8205 57.4434 63.7682 57.5791 63.6637 57.6901C63.5591 57.795 63.4268 57.8474 63.2668 57.8474C63.1068 57.8474 62.9746 57.795 62.87 57.6901C62.7654 57.5791 62.7131 57.4434 62.7131 57.283V53.4614C62.7131 53.301 62.7654 53.1684 62.87 53.0635C62.9746 52.9525 63.1068 52.8969 63.2668 52.8969C63.4268 52.8969 63.5591 52.9525 63.6637 53.0635C63.7682 53.1684 63.8205 53.301 63.8205 53.4614V57.283ZM63.2576 52.2955C63.0484 52.2955 62.9007 52.2615 62.8146 52.1937C62.7285 52.1258 62.6854 52.0055 62.6854 51.8328V51.657C62.6854 51.4781 62.7315 51.3578 62.8238 51.2961C62.9223 51.2283 63.0699 51.1943 63.2668 51.1943C63.4821 51.1943 63.6329 51.2283 63.719 51.2961C63.8052 51.364 63.8482 51.4843 63.8482 51.657V51.8328C63.8482 52.0117 63.8021 52.1351 63.7098 52.2029C63.6175 52.2646 63.4668 52.2955 63.2576 52.2955Z" fill="white"/>
<path d="M60.47 51C60.63 51 60.7623 51.0524 60.8669 51.1573C60.9715 51.2622 61.0238 51.3979 61.0238 51.5644V57.283C61.0238 57.4433 60.9715 57.5791 60.8669 57.6901C60.7623 57.795 60.63 57.8474 60.47 57.8474C60.3101 57.8474 60.1778 57.795 60.0732 57.6901C59.9686 57.5791 59.9163 57.4433 59.9163 57.283V56.8295L60.1193 56.9128C60.1193 56.993 60.0763 57.0917 59.9901 57.2089C59.904 57.32 59.7871 57.431 59.6394 57.542C59.4918 57.6531 59.3164 57.7487 59.1134 57.8289C58.9165 57.9029 58.7012 57.9399 58.4674 57.9399C58.0429 57.9399 57.6583 57.832 57.3138 57.6161C56.9692 57.394 56.6954 57.0917 56.4924 56.7092C56.2955 56.3206 56.1971 55.8765 56.1971 55.3768C56.1971 54.8709 56.2955 54.4268 56.4924 54.0443C56.6954 53.6557 56.9662 53.3534 57.3045 53.1375C57.6429 52.9154 58.0182 52.8044 58.4305 52.8044C58.695 52.8044 58.9381 52.8445 59.1595 52.9247C59.381 53.0049 59.5718 53.1067 59.7317 53.23C59.8979 53.3534 60.024 53.4799 60.1101 53.6094C60.2024 53.7328 60.2485 53.8377 60.2485 53.924L59.9163 54.0443V51.5644C59.9163 51.4041 59.9686 51.2714 60.0732 51.1666C60.1778 51.0555 60.3101 51 60.47 51ZM58.6058 56.9221C58.8765 56.9221 59.1134 56.8542 59.3164 56.7185C59.5195 56.5828 59.6764 56.3977 59.7871 56.1633C59.904 55.9289 59.9625 55.6667 59.9625 55.3768C59.9625 55.0807 59.904 54.8154 59.7871 54.581C59.6764 54.3466 59.5195 54.1615 59.3164 54.0258C59.1134 53.8901 58.8765 53.8222 58.6058 53.8222C58.3413 53.8222 58.1075 53.8901 57.9044 54.0258C57.7014 54.1615 57.5414 54.3466 57.4245 54.581C57.3138 54.8154 57.2584 55.0807 57.2584 55.3768C57.2584 55.6667 57.3138 55.9289 57.4245 56.1633C57.5414 56.3977 57.7014 56.5828 57.9044 56.7185C58.1075 56.8542 58.3413 56.9221 58.6058 56.9221Z" fill="white"/>
<path d="M54.1675 52.897C54.3275 52.897 54.4598 52.9525 54.5644 53.0635C54.669 53.1684 54.7213 53.301 54.7213 53.4614V55.8117C54.7213 56.4656 54.5398 56.9838 54.1768 57.3663C53.8138 57.7488 53.2908 57.94 52.6079 57.94C51.9249 57.94 51.402 57.7488 51.039 57.3663C50.6821 56.9838 50.5037 56.4656 50.5037 55.8117V53.4614C50.5037 53.301 50.556 53.1684 50.6606 53.0635C50.7652 52.9525 50.8975 52.897 51.0574 52.897C51.2174 52.897 51.3497 52.9525 51.4543 53.0635C51.5589 53.1684 51.6112 53.301 51.6112 53.4614V55.8117C51.6112 56.188 51.6942 56.4687 51.8603 56.6538C52.0265 56.8327 52.2756 56.9221 52.6079 56.9221C52.9463 56.9221 53.1985 56.8327 53.3646 56.6538C53.5308 56.4687 53.6138 56.188 53.6138 55.8117V53.4614C53.6138 53.301 53.6661 53.1684 53.7707 53.0635C53.8753 52.9525 54.0076 52.897 54.1675 52.897Z" fill="white"/>
<path d="M46.2291 52.9895H48.4163C48.564 52.9895 48.687 53.0388 48.7855 53.1375C48.8839 53.2362 48.9331 53.3596 48.9331 53.5077C48.9331 53.6495 48.8839 53.7698 48.7855 53.8685C48.687 53.9611 48.564 54.0073 48.4163 54.0073H46.2291C46.0814 54.0073 45.9584 53.958 45.8599 53.8593C45.7615 53.7606 45.7123 53.6372 45.7123 53.4892C45.7123 53.3473 45.7615 53.2301 45.8599 53.1375C45.9584 53.0388 46.0814 52.9895 46.2291 52.9895ZM47.2166 51.8328C47.3765 51.8328 47.5058 51.8883 47.6042 51.9994C47.7088 52.1043 47.7611 52.2369 47.7611 52.3973V56.515C47.7611 56.6013 47.7765 56.6723 47.8072 56.7278C47.8441 56.7833 47.8903 56.8234 47.9457 56.8481C48.0072 56.8728 48.0718 56.8851 48.1395 56.8851C48.2133 56.8851 48.281 56.8728 48.3425 56.8481C48.404 56.8172 48.4748 56.8018 48.5548 56.8018C48.6409 56.8018 48.7178 56.8419 48.7855 56.9221C48.8593 57.0023 48.8962 57.1133 48.8962 57.2552C48.8962 57.428 48.8009 57.5698 48.6101 57.6809C48.4256 57.7919 48.2256 57.8474 48.0103 57.8474C47.8811 57.8474 47.7365 57.8382 47.5765 57.8197C47.4227 57.795 47.275 57.7426 47.1335 57.6624C46.9982 57.576 46.8843 57.4465 46.7921 57.2737C46.6998 57.101 46.6536 56.8635 46.6536 56.5612V52.3973C46.6536 52.2369 46.7059 52.1043 46.8105 51.9994C46.9213 51.8883 47.0566 51.8328 47.2166 51.8328Z" fill="white"/>
<path d="M42.2821 57.94C41.8514 57.94 41.4638 57.8875 41.1192 57.7827C40.7747 57.6716 40.4455 57.4804 40.1317 57.209C40.0518 57.1411 39.9902 57.064 39.9472 56.9776C39.9041 56.8913 39.8826 56.8049 39.8826 56.7186C39.8826 56.5767 39.9318 56.4533 40.0302 56.3484C40.1348 56.2374 40.264 56.1819 40.4178 56.1819C40.5347 56.1819 40.6393 56.2189 40.7316 56.2929C40.9654 56.4841 41.1961 56.6291 41.4238 56.7278C41.6576 56.8265 41.9437 56.8759 42.2821 56.8759C42.5097 56.8759 42.7189 56.8419 42.9096 56.7741C43.1004 56.7 43.2542 56.6044 43.3711 56.4872C43.488 56.3638 43.5464 56.225 43.5464 56.0708C43.5464 55.8858 43.491 55.7285 43.3803 55.5989C43.2696 55.4694 43.1004 55.3614 42.8727 55.275C42.6451 55.1825 42.3559 55.1116 42.0052 55.0622C41.673 55.0129 41.3807 54.9388 41.1285 54.8401C40.8762 54.7353 40.6639 54.6057 40.4917 54.4515C40.3256 54.2911 40.1994 54.1061 40.1133 53.8963C40.0272 53.6804 39.9841 53.4398 39.9841 53.1746C39.9841 52.7736 40.0856 52.4312 40.2886 52.1475C40.4978 51.8637 40.7778 51.6478 41.1285 51.4997C41.4792 51.3517 41.8668 51.2776 42.2913 51.2776C42.6912 51.2776 43.0604 51.3393 43.3988 51.4627C43.7433 51.5799 44.0232 51.7311 44.2386 51.9161C44.417 52.058 44.5062 52.2215 44.5062 52.4065C44.5062 52.5423 44.4539 52.6656 44.3493 52.7767C44.2447 52.8877 44.1217 52.9432 43.9802 52.9432C43.8879 52.9432 43.8048 52.9155 43.731 52.86C43.6326 52.7736 43.5003 52.6934 43.3342 52.6194C43.168 52.5392 42.9927 52.4744 42.8081 52.4251C42.6235 52.3695 42.4513 52.3418 42.2913 52.3418C42.0267 52.3418 41.8022 52.3757 41.6176 52.4436C41.4392 52.5114 41.3038 52.6039 41.2115 52.7212C41.1192 52.8384 41.0731 52.9741 41.0731 53.1283C41.0731 53.3134 41.1254 53.4676 41.23 53.591C41.3407 53.7082 41.4976 53.8038 41.7006 53.8778C41.9037 53.9457 42.1467 54.0074 42.4297 54.0629C42.7989 54.1307 43.1219 54.2109 43.3988 54.3035C43.6818 54.396 43.9156 54.5163 44.1002 54.6643C44.2847 54.8062 44.4232 54.9882 44.5155 55.2103C44.6077 55.4262 44.6539 55.6914 44.6539 56.0061C44.6539 56.407 44.5431 56.7525 44.3216 57.0424C44.1002 57.3324 43.8079 57.5544 43.4449 57.7087C43.0881 57.8629 42.7004 57.94 42.2821 57.94Z" fill="white"/>
<path d="M32.6983 52.9895H34.8856C35.0332 52.9895 35.1563 53.0388 35.2547 53.1375C35.3532 53.2362 35.4024 53.3596 35.4024 53.5077C35.4024 53.6495 35.3532 53.7698 35.2547 53.8685C35.1563 53.9611 35.0332 54.0073 34.8856 54.0073H32.6983C32.5507 54.0073 32.4276 53.958 32.3292 53.8593C32.2307 53.7606 32.1815 53.6372 32.1815 53.4892C32.1815 53.3473 32.2307 53.2301 32.3292 53.1375C32.4276 53.0388 32.5507 52.9895 32.6983 52.9895ZM33.6858 51.8328C33.8458 51.8328 33.975 51.8883 34.0734 51.9994C34.178 52.1043 34.2303 52.2369 34.2303 52.3973V56.515C34.2303 56.6013 34.2457 56.6723 34.2765 56.7278C34.3134 56.7833 34.3595 56.8234 34.4149 56.8481C34.4764 56.8728 34.541 56.8851 34.6087 56.8851C34.6825 56.8851 34.7502 56.8728 34.8117 56.8481C34.8733 56.8172 34.944 56.8018 35.024 56.8018C35.1101 56.8018 35.187 56.8419 35.2547 56.9221C35.3286 57.0023 35.3655 57.1133 35.3655 57.2552C35.3655 57.428 35.2701 57.5698 35.0794 57.6809C34.8948 57.7919 34.6948 57.8474 34.4795 57.8474C34.3503 57.8474 34.2057 57.8382 34.0457 57.8197C33.8919 57.795 33.7443 57.7426 33.6028 57.6624C33.4674 57.576 33.3536 57.4465 33.2613 57.2737C33.169 57.101 33.1229 56.8635 33.1229 56.5612V52.3973C33.1229 52.2369 33.1752 52.1043 33.2798 51.9994C33.3905 51.8883 33.5259 51.8328 33.6858 51.8328Z" fill="white"/>
<path d="M29.231 52.8044C29.6863 52.8044 30.0309 52.9 30.2647 53.0912C30.5046 53.2825 30.6677 53.5385 30.7538 53.8593C30.8461 54.1739 30.8922 54.5255 30.8922 54.9141V57.283C30.8922 57.4433 30.8399 57.5791 30.7353 57.6901C30.6307 57.795 30.4985 57.8474 30.3385 57.8474C30.1785 57.8474 30.0462 57.795 29.9417 57.6901C29.8371 57.5791 29.7848 57.4433 29.7848 57.283V54.9141C29.7848 54.7105 29.7571 54.5286 29.7017 54.3682C29.6525 54.2016 29.5602 54.069 29.4248 53.9703C29.2895 53.8716 29.0957 53.8222 28.8434 53.8222C28.5973 53.8222 28.3881 53.8716 28.2159 53.9703C28.0497 54.069 27.9205 54.2016 27.8282 54.3682C27.7421 54.5286 27.699 54.7105 27.699 54.9141V57.283C27.699 57.4433 27.6467 57.5791 27.5422 57.6901C27.4376 57.795 27.3053 57.8474 27.1453 57.8474C26.9853 57.8474 26.8531 57.795 26.7485 57.6901C26.6439 57.5791 26.5916 57.4433 26.5916 57.283V53.4614C26.5916 53.301 26.6439 53.1683 26.7485 53.0635C26.8531 52.9524 26.9853 52.8969 27.1453 52.8969C27.3053 52.8969 27.4376 52.9524 27.5422 53.0635C27.6467 53.1683 27.699 53.301 27.699 53.4614V53.8593L27.5606 53.8315C27.616 53.7266 27.696 53.6156 27.8006 53.4984C27.9052 53.375 28.0282 53.2609 28.1697 53.156C28.3112 53.0511 28.4712 52.9679 28.6496 52.9062C28.828 52.8383 29.0218 52.8044 29.231 52.8044Z" fill="white"/>
<path d="M24.2839 52.8044C24.4439 52.8044 24.5762 52.8568 24.6808 52.9617C24.7853 53.0666 24.8376 53.2023 24.8376 53.3688V57.283C24.8376 57.4433 24.7853 57.5791 24.6808 57.6901C24.5762 57.795 24.4439 57.8474 24.2839 57.8474C24.1239 57.8474 23.9917 57.795 23.8871 57.6901C23.7825 57.5791 23.7302 57.4433 23.7302 57.283V56.8295L23.9332 56.9128C23.9332 56.993 23.8902 57.0917 23.804 57.2089C23.7179 57.32 23.601 57.431 23.4533 57.542C23.3057 57.6531 23.1303 57.7487 22.9273 57.8289C22.7304 57.9029 22.5151 57.9399 22.2813 57.9399C21.8567 57.9399 21.4722 57.832 21.1276 57.6161C20.7831 57.394 20.5093 57.0917 20.3063 56.7092C20.1094 56.3206 20.011 55.8765 20.011 55.3768C20.011 54.8709 20.1094 54.4268 20.3063 54.0443C20.5093 53.6557 20.78 53.3534 21.1184 53.1375C21.4568 52.9154 21.8321 52.8044 22.2443 52.8044C22.5089 52.8044 22.7519 52.8445 22.9734 52.9247C23.1949 53.0049 23.3856 53.1067 23.5456 53.23C23.7117 53.3534 23.8379 53.4799 23.924 53.6094C24.0163 53.7328 24.0624 53.8377 24.0624 53.924L23.7302 54.0443V53.3688C23.7302 53.2084 23.7825 53.0758 23.8871 52.9709C23.9917 52.8599 24.1239 52.8044 24.2839 52.8044ZM22.4197 56.9221C22.6904 56.9221 22.9273 56.8542 23.1303 56.7185C23.3333 56.5828 23.4902 56.3977 23.601 56.1633C23.7179 55.9289 23.7763 55.6667 23.7763 55.3768C23.7763 55.0807 23.7179 54.8154 23.601 54.581C23.4902 54.3466 23.3333 54.1615 23.1303 54.0258C22.9273 53.8901 22.6904 53.8222 22.4197 53.8222C22.1551 53.8222 21.9213 53.8901 21.7183 54.0258C21.5153 54.1615 21.3553 54.3466 21.2384 54.581C21.1276 54.8154 21.0723 55.0807 21.0723 55.3768C21.0723 55.6667 21.1276 55.9289 21.2384 56.1633C21.3553 56.3977 21.5153 56.5828 21.7183 56.7185C21.9213 56.8542 22.1551 56.9221 22.4197 56.9221Z" fill="white"/>
<path d="M18.4464 57.283C18.4464 57.4433 18.391 57.5791 18.2803 57.6901C18.1757 57.795 18.0434 57.8474 17.8835 57.8474C17.7296 57.8474 17.6004 57.795 17.4958 57.6901C17.3913 57.5791 17.339 57.4433 17.339 57.283V51.5644C17.339 51.4041 17.3913 51.2714 17.4958 51.1666C17.6066 51.0555 17.742 51 17.9019 51C18.0619 51 18.1911 51.0555 18.2895 51.1666C18.3941 51.2714 18.4464 51.4041 18.4464 51.5644V57.283Z" fill="white"/>
<path d="M13.8916 51.3702C14.2115 51.3702 14.5099 51.4627 14.7868 51.6478C15.0698 51.8328 15.2975 52.0827 15.4697 52.3973C15.642 52.7119 15.7281 53.0635 15.7281 53.4522C15.7281 53.8346 15.642 54.1832 15.4697 54.4978C15.2975 54.8124 15.0698 55.0653 14.7868 55.2565C14.5099 55.4416 14.2115 55.5341 13.8916 55.5341H12.1935L12.2858 55.3676V57.283C12.2858 57.4434 12.2366 57.5791 12.1381 57.6901C12.0397 57.795 11.9105 57.8474 11.7505 57.8474C11.5967 57.8474 11.4706 57.795 11.3721 57.6901C11.2737 57.5791 11.2245 57.4434 11.2245 57.283V51.9346C11.2245 51.7742 11.2768 51.6416 11.3813 51.5367C11.4921 51.4257 11.6274 51.3702 11.7874 51.3702H13.8916ZM13.8916 54.4793C14.0085 54.4793 14.1223 54.4299 14.2331 54.3312C14.3438 54.2325 14.4361 54.1061 14.5099 53.9518C14.5838 53.7914 14.6207 53.6249 14.6207 53.4522C14.6207 53.2733 14.5838 53.1067 14.5099 52.9525C14.4361 52.7983 14.3438 52.6749 14.2331 52.5824C14.1223 52.4837 14.0085 52.4343 13.8916 52.4343H12.175L12.2858 52.2677V54.6273L12.1843 54.4793H13.8916Z" fill="white"/>
<path d="M5.64445 51.3702C5.79211 51.3702 5.91208 51.4195 6.00437 51.5182C6.09666 51.6169 6.14281 51.7403 6.14281 51.8884V57.283C6.14281 57.4434 6.08743 57.5791 5.97669 57.6901C5.87209 57.795 5.73981 57.8474 5.57985 57.8474C5.49986 57.8474 5.4168 57.8351 5.33067 57.8104C5.25068 57.7796 5.18916 57.7395 5.14609 57.6901L1.51915 53.0728L1.7591 52.9247V57.3293C1.7591 57.4773 1.70988 57.6007 1.61144 57.6994C1.51915 57.7981 1.3961 57.8474 1.24229 57.8474C1.09462 57.8474 0.974648 57.7981 0.88236 57.6994C0.790071 57.6007 0.743927 57.4773 0.743927 57.3293V51.9346C0.743927 51.7742 0.796224 51.6416 0.900818 51.5367C1.01156 51.4257 1.14692 51.3702 1.30689 51.3702C1.39302 51.3702 1.48224 51.3887 1.57452 51.4257C1.66681 51.4565 1.73449 51.5059 1.77756 51.5737L5.29375 56.0708L5.13686 56.1819V51.8884C5.13686 51.7403 5.18301 51.6169 5.27529 51.5182C5.36758 51.4195 5.49063 51.3702 5.64445 51.3702Z" fill="white"/>
</svg>
