<svg width="92" height="20" viewBox="0 0 92 20" fill="none" xmlns="http://www.w3.org/2000/svg">
<rect width="20" height="20" fill="#222222"/>
<path d="M12.8733 6C13.0503 6 13.1941 6.05899 13.3047 6.17697C13.4153 6.29496 13.4706 6.44243 13.4706 6.61941V13.0679C13.4706 13.2596 13.4042 13.4218 13.2715 13.5546C13.1461 13.6799 12.9876 13.7426 12.7959 13.7426C12.7 13.7426 12.6005 13.7278 12.4972 13.6983C12.4014 13.6615 12.3276 13.6135 12.276 13.5546L7.92911 8.0352L8.21669 7.85822V13.1232C8.21669 13.3002 8.1577 13.4476 8.03972 13.5656C7.92911 13.6836 7.78163 13.7426 7.59729 13.7426C7.42031 13.7426 7.27652 13.6836 7.16591 13.5656C7.0553 13.4476 7 13.3002 7 13.1232V6.67471C7 6.48299 7.06268 6.32445 7.18803 6.1991C7.32076 6.06637 7.48299 6 7.67471 6C7.77795 6 7.88487 6.02212 7.99548 6.06637C8.10608 6.10323 8.1872 6.16223 8.23881 6.24334L12.453 11.6189L12.265 11.7516V6.61941C12.265 6.44243 12.3203 6.29496 12.4309 6.17697C12.5415 6.05899 12.689 6 12.8733 6Z" fill="white"/>
<path d="M86.9417 10.152C86.9417 10.623 86.8354 11.0394 86.6229 11.4012C86.4162 11.7573 86.1348 12.0358 85.7787 12.2368C85.4283 12.4379 85.0349 12.5384 84.5984 12.5384C84.1619 12.5384 83.7656 12.4379 83.4096 12.2368C83.0592 12.0358 82.7778 11.7573 82.5653 11.4012C82.3585 11.0394 82.2552 10.623 82.2552 10.152C82.2552 9.68108 82.3585 9.26756 82.5653 8.91148C82.7778 8.54965 83.0592 8.26823 83.4096 8.06722C83.7656 7.86046 84.1619 7.75708 84.5984 7.75708C85.0349 7.75708 85.4283 7.86046 85.7787 8.06722C86.1348 8.26823 86.4162 8.54965 86.6229 8.91148C86.8354 9.26756 86.9417 9.68108 86.9417 10.152ZM85.9079 10.152C85.9079 9.85912 85.8476 9.60642 85.727 9.39392C85.6121 9.17567 85.4542 9.00624 85.2532 8.88564C85.0579 8.76503 84.8396 8.70472 84.5984 8.70472C84.3572 8.70472 84.1361 8.76503 83.9351 8.88564C83.7398 9.00624 83.5819 9.17567 83.4612 9.39392C83.3464 9.60642 83.289 9.85912 83.289 10.152C83.289 10.4392 83.3464 10.6919 83.4612 10.9101C83.5819 11.1226 83.7398 11.2892 83.9351 11.4098C84.1361 11.5304 84.3572 11.5907 84.5984 11.5907C84.8396 11.5907 85.0579 11.5304 85.2532 11.4098C85.4542 11.2892 85.6121 11.1226 85.727 10.9101C85.8476 10.6919 85.9079 10.4392 85.9079 10.152Z" fill="#222222"/>
<path d="M80.762 11.9267C80.762 12.076 80.7131 12.2024 80.6155 12.3058C80.5179 12.4034 80.3944 12.4522 80.2451 12.4522C80.0957 12.4522 79.9723 12.4034 79.8746 12.3058C79.777 12.2024 79.7282 12.076 79.7282 11.9267V8.36874C79.7282 8.21942 79.777 8.09594 79.8746 7.9983C79.9723 7.89492 80.0957 7.84323 80.2451 7.84323C80.3944 7.84323 80.5179 7.89492 80.6155 7.9983C80.7131 8.09594 80.762 8.21942 80.762 8.36874V11.9267ZM80.2365 7.28326C80.0412 7.28326 79.9033 7.25168 79.8229 7.1885C79.7425 7.12532 79.7023 7.01333 79.7023 6.85252V6.68883C79.7023 6.52228 79.7454 6.41028 79.8316 6.35285C79.9234 6.28967 80.0613 6.25809 80.2451 6.25809C80.4461 6.25809 80.5868 6.28967 80.6672 6.35285C80.7476 6.41603 80.7878 6.52802 80.7878 6.68883V6.85252C80.7878 7.01907 80.7447 7.13394 80.6586 7.19711C80.5724 7.25455 80.4317 7.28326 80.2365 7.28326Z" fill="#222222"/>
<path d="M77.4621 6.07715C77.6114 6.07715 77.7349 6.12597 77.8325 6.2236C77.9301 6.32124 77.979 6.44759 77.979 6.60266V11.9267C77.979 12.076 77.9301 12.2024 77.8325 12.3057C77.7349 12.4034 77.6114 12.4522 77.4621 12.4522C77.3127 12.4522 77.1893 12.4034 77.0916 12.3057C76.994 12.2024 76.9452 12.076 76.9452 11.9267V11.5046L77.1347 11.5821C77.1347 11.6568 77.0945 11.7486 77.0141 11.8578C76.9337 11.9611 76.8246 12.0645 76.6867 12.1679C76.5489 12.2713 76.3852 12.3603 76.1957 12.435C76.0119 12.5039 75.8109 12.5383 75.5926 12.5383C75.1963 12.5383 74.8374 12.4378 74.5158 12.2368C74.1941 12.0301 73.9386 11.7486 73.749 11.3926C73.5653 11.0307 73.4734 10.6172 73.4734 10.152C73.4734 9.68106 73.5653 9.26754 73.749 8.91146C73.9386 8.54963 74.1913 8.26821 74.5072 8.0672C74.823 7.86044 75.1734 7.75706 75.5582 7.75706C75.8051 7.75706 76.032 7.79439 76.2388 7.86905C76.4455 7.94372 76.6236 8.03848 76.7729 8.15335C76.9279 8.26821 77.0457 8.38595 77.1261 8.50656C77.2122 8.62142 77.2553 8.71906 77.2553 8.79947L76.9452 8.91146V6.60266C76.9452 6.45333 76.994 6.32985 77.0916 6.23222C77.1893 6.12884 77.3127 6.07715 77.4621 6.07715ZM75.7219 11.5907C75.9746 11.5907 76.1957 11.5275 76.3852 11.4012C76.5747 11.2748 76.7212 11.1025 76.8246 10.8843C76.9337 10.666 76.9883 10.4219 76.9883 10.152C76.9883 9.87633 76.9337 9.62937 76.8246 9.41113C76.7212 9.19288 76.5747 9.02058 76.3852 8.89423C76.1957 8.76788 75.9746 8.7047 75.7219 8.7047C75.4749 8.7047 75.2566 8.76788 75.0671 8.89423C74.8776 9.02058 74.7283 9.19288 74.6191 9.41113C74.5158 9.62937 74.4641 9.87633 74.4641 10.152C74.4641 10.4219 74.5158 10.666 74.6191 10.8843C74.7283 11.1025 74.8776 11.2748 75.0671 11.4012C75.2566 11.5275 75.4749 11.5907 75.7219 11.5907Z" fill="#222222"/>
<path d="M71.4065 7.84323C71.5558 7.84323 71.6793 7.89492 71.777 7.9983C71.8746 8.09594 71.9234 8.21942 71.9234 8.36874V10.5569C71.9234 11.1657 71.754 11.6482 71.4151 12.0042C71.0763 12.3603 70.5881 12.5384 69.9506 12.5384C69.3131 12.5384 68.8249 12.3603 68.4861 12.0042C68.1529 11.6482 67.9864 11.1657 67.9864 10.5569V8.36874C67.9864 8.21942 68.0352 8.09594 68.1328 7.9983C68.2305 7.89492 68.354 7.84323 68.5033 7.84323C68.6526 7.84323 68.7761 7.89492 68.8737 7.9983C68.9714 8.09594 69.0202 8.21942 69.0202 8.36874V10.5569C69.0202 10.9073 69.0977 11.1686 69.2528 11.3409C69.4079 11.5074 69.6405 11.5907 69.9506 11.5907C70.2665 11.5907 70.5019 11.5074 70.657 11.3409C70.8121 11.1686 70.8896 10.9073 70.8896 10.5569V8.36874C70.8896 8.21942 70.9384 8.09594 71.0361 7.9983C71.1337 7.89492 71.2572 7.84323 71.4065 7.84323Z" fill="#222222"/>
<path d="M63.8238 7.92941H65.8655C66.0034 7.92941 66.1182 7.97535 66.2101 8.06724C66.302 8.15914 66.348 8.274 66.348 8.41184C66.348 8.54394 66.302 8.65593 66.2101 8.74782C66.1182 8.83397 66.0034 8.87705 65.8655 8.87705H63.8238C63.686 8.87705 63.5711 8.8311 63.4792 8.73921C63.3873 8.64732 63.3414 8.53245 63.3414 8.39461C63.3414 8.26252 63.3873 8.15339 63.4792 8.06724C63.5711 7.97535 63.686 7.92941 63.8238 7.92941ZM64.7456 6.85254C64.8949 6.85254 65.0155 6.90423 65.1074 7.00761C65.2051 7.10524 65.2539 7.22872 65.2539 7.37805V11.2117C65.2539 11.2921 65.2682 11.3581 65.297 11.4098C65.3314 11.4615 65.3745 11.4989 65.4262 11.5218C65.4836 11.5448 65.5439 11.5563 65.6071 11.5563C65.676 11.5563 65.7392 11.5448 65.7966 11.5218C65.8541 11.4931 65.9201 11.4788 65.9948 11.4788C66.0752 11.4788 66.147 11.5161 66.2101 11.5908C66.2791 11.6654 66.3135 11.7688 66.3135 11.9009C66.3135 12.0617 66.2245 12.1938 66.0465 12.2972C65.8742 12.4006 65.6875 12.4522 65.4865 12.4522C65.3659 12.4522 65.2309 12.4436 65.0816 12.4264C64.938 12.4034 64.8002 12.3546 64.6681 12.2799C64.5417 12.1995 64.4355 12.0789 64.3493 11.9181C64.2632 11.7573 64.2201 11.5362 64.2201 11.2548V7.37805C64.2201 7.22872 64.2689 7.10524 64.3665 7.00761C64.4699 6.90423 64.5963 6.85254 64.7456 6.85254Z" fill="#222222"/>
<path d="M59.967 12.5383C59.565 12.5383 59.2032 12.4895 58.8815 12.3919C58.5599 12.2885 58.2527 12.1104 57.9597 11.8577C57.8851 11.7946 57.8276 11.7228 57.7874 11.6424C57.7472 11.562 57.7271 11.4816 57.7271 11.4011C57.7271 11.2691 57.7731 11.1542 57.865 11.0566C57.9626 10.9532 58.0832 10.9015 58.2268 10.9015C58.3359 10.9015 58.4336 10.9359 58.5197 11.0049C58.738 11.1829 58.9533 11.3179 59.1658 11.4098C59.3841 11.5017 59.6511 11.5476 59.967 11.5476C60.1795 11.5476 60.3748 11.516 60.5528 11.4528C60.7309 11.3839 60.8745 11.2949 60.9836 11.1858C61.0927 11.0709 61.1473 10.9417 61.1473 10.7981C61.1473 10.6258 61.0956 10.4794 60.9922 10.3587C60.8888 10.2381 60.7309 10.1376 60.5184 10.0572C60.3059 9.97107 60.0359 9.90502 59.7086 9.85908C59.3984 9.81313 59.1256 9.74421 58.8902 9.65232C58.6547 9.55468 58.4565 9.43407 58.2957 9.29049C58.1407 9.14117 58.0229 8.96887 57.9425 8.7736C57.8621 8.57258 57.8219 8.34859 57.8219 8.10163C57.8219 7.72832 57.9167 7.40957 58.1062 7.14537C58.3015 6.88118 58.5628 6.68017 58.8902 6.54233C59.2175 6.40449 59.5794 6.33557 59.9756 6.33557C60.349 6.33557 60.6936 6.393 61.0094 6.50787C61.3311 6.61699 61.5924 6.7577 61.7934 6.93C61.9599 7.0621 62.0432 7.21429 62.0432 7.38659C62.0432 7.51294 61.9944 7.62781 61.8968 7.73119C61.7991 7.83457 61.6843 7.88626 61.5522 7.88626C61.466 7.88626 61.3885 7.86041 61.3196 7.80872C61.2277 7.72832 61.1042 7.65366 60.9491 7.58474C60.7941 7.51007 60.6304 7.44977 60.4581 7.40382C60.2858 7.35213 60.125 7.32629 59.9756 7.32629C59.7287 7.32629 59.519 7.35788 59.3467 7.42105C59.1802 7.48423 59.0538 7.57038 58.9677 7.6795C58.8815 7.78862 58.8385 7.91497 58.8385 8.05856C58.8385 8.23086 58.8873 8.37444 58.9849 8.4893C59.0883 8.59843 59.2348 8.68745 59.4243 8.75637C59.6138 8.81954 59.8407 8.87698 60.1049 8.92866C60.4495 8.99184 60.751 9.0665 61.0094 9.15265C61.2736 9.2388 61.4919 9.3508 61.6642 9.48863C61.8365 9.62073 61.9657 9.79016 62.0518 9.99692C62.138 10.1979 62.1811 10.4449 62.1811 10.7378C62.1811 11.1111 62.0777 11.4327 61.8709 11.7027C61.6642 11.9726 61.3914 12.1794 61.0525 12.3229C60.7194 12.4665 60.3576 12.5383 59.967 12.5383Z" fill="#222222"/>
<path d="M50.6763 7.92941H52.718C52.8559 7.92941 52.9707 7.97535 53.0626 8.06724C53.1545 8.15914 53.2005 8.274 53.2005 8.41184C53.2005 8.54394 53.1545 8.65593 53.0626 8.74782C52.9707 8.83397 52.8559 8.87705 52.718 8.87705H50.6763C50.5384 8.87705 50.4236 8.8311 50.3317 8.73921C50.2398 8.64732 50.1938 8.53245 50.1938 8.39461C50.1938 8.26252 50.2398 8.15339 50.3317 8.06724C50.4236 7.97535 50.5384 7.92941 50.6763 7.92941ZM51.5981 6.85254C51.7474 6.85254 51.868 6.90423 51.9599 7.00761C52.0575 7.10524 52.1064 7.22872 52.1064 7.37805V11.2117C52.1064 11.2921 52.1207 11.3581 52.1494 11.4098C52.1839 11.4615 52.227 11.4989 52.2787 11.5218C52.3361 11.5448 52.3964 11.5563 52.4596 11.5563C52.5285 11.5563 52.5917 11.5448 52.6491 11.5218C52.7065 11.4931 52.7726 11.4788 52.8472 11.4788C52.9277 11.4788 52.9994 11.5161 53.0626 11.5908C53.1315 11.6654 53.166 11.7688 53.166 11.9009C53.166 12.0617 53.077 12.1938 52.8989 12.2972C52.7266 12.4006 52.54 12.4522 52.339 12.4522C52.2184 12.4522 52.0834 12.4436 51.9341 12.4264C51.7905 12.4034 51.6526 12.3546 51.5205 12.2799C51.3942 12.1995 51.2879 12.0789 51.2018 11.9181C51.1156 11.7573 51.0726 11.5362 51.0726 11.2548V7.37805C51.0726 7.22872 51.1214 7.10524 51.219 7.00761C51.3224 6.90423 51.4488 6.85254 51.5981 6.85254Z" fill="#222222"/>
<path d="M47.2674 7.75708C47.6924 7.75708 48.014 7.8461 48.2322 8.02414C48.4562 8.20218 48.6084 8.44053 48.6888 8.73918C48.775 9.03209 48.8181 9.35946 48.8181 9.72128V11.9267C48.8181 12.076 48.7692 12.2024 48.6716 12.3058C48.574 12.4034 48.4505 12.4522 48.3012 12.4522C48.1518 12.4522 48.0284 12.4034 47.9307 12.3058C47.8331 12.2024 47.7843 12.076 47.7843 11.9267V9.72128C47.7843 9.53175 47.7584 9.36233 47.7067 9.213C47.6608 9.05793 47.5746 8.93445 47.4483 8.84256C47.3219 8.75067 47.141 8.70472 46.9055 8.70472C46.6758 8.70472 46.4805 8.75067 46.3197 8.84256C46.1647 8.93445 46.044 9.05793 45.9579 9.213C45.8775 9.36233 45.8373 9.53175 45.8373 9.72128V11.9267C45.8373 12.076 45.7885 12.2024 45.6908 12.3058C45.5932 12.4034 45.4697 12.4522 45.3204 12.4522C45.1711 12.4522 45.0476 12.4034 44.95 12.3058C44.8523 12.2024 44.8035 12.076 44.8035 11.9267V8.36874C44.8035 8.21941 44.8523 8.09593 44.95 7.9983C45.0476 7.89492 45.1711 7.84323 45.3204 7.84323C45.4697 7.84323 45.5932 7.89492 45.6908 7.9983C45.7885 8.09593 45.8373 8.21941 45.8373 8.36874V8.73918L45.7081 8.71334C45.7598 8.6157 45.8344 8.51232 45.9321 8.4032C46.0297 8.28833 46.1446 8.18208 46.2767 8.08445C46.4087 7.98681 46.5581 7.90928 46.7246 7.85184C46.8912 7.78867 47.0721 7.75708 47.2674 7.75708Z" fill="#222222"/>
<path d="M42.477 7.75708C42.6263 7.75708 42.7498 7.8059 42.8474 7.90353C42.9451 8.00117 42.9939 8.12752 42.9939 8.28259V11.9267C42.9939 12.076 42.9451 12.2024 42.8474 12.3058C42.7498 12.4034 42.6263 12.4522 42.477 12.4522C42.3277 12.4522 42.2042 12.4034 42.1066 12.3058C42.0089 12.2024 41.9601 12.076 41.9601 11.9267V11.5046L42.1496 11.5821C42.1496 11.6568 42.1094 11.7487 42.029 11.8578C41.9486 11.9612 41.8395 12.0645 41.7016 12.1679C41.5638 12.2713 41.4001 12.3603 41.2106 12.435C41.0268 12.5039 40.8258 12.5384 40.6076 12.5384C40.2113 12.5384 39.8523 12.4379 39.5307 12.2368C39.2091 12.0301 38.9535 11.7487 38.764 11.3926C38.5802 11.0308 38.4883 10.6172 38.4883 10.152C38.4883 9.68108 38.5802 9.26756 38.764 8.91148C38.9535 8.54965 39.2062 8.26823 39.5221 8.06722C39.838 7.86046 40.1883 7.75708 40.5731 7.75708C40.8201 7.75708 41.0469 7.79441 41.2537 7.86907C41.4604 7.94374 41.6385 8.0385 41.7878 8.15337C41.9429 8.26823 42.0606 8.38597 42.141 8.50658C42.2272 8.62144 42.2702 8.71908 42.2702 8.79949L41.9601 8.91148V8.28259C41.9601 8.13326 42.0089 8.00978 42.1066 7.91215C42.2042 7.80877 42.3277 7.75708 42.477 7.75708ZM40.7368 11.5907C40.9895 11.5907 41.2106 11.5275 41.4001 11.4012C41.5897 11.2748 41.7361 11.1025 41.8395 10.8843C41.9486 10.6661 42.0032 10.422 42.0032 10.152C42.0032 9.87635 41.9486 9.62939 41.8395 9.41115C41.7361 9.1929 41.5897 9.0206 41.4001 8.89425C41.2106 8.7679 40.9895 8.70472 40.7368 8.70472C40.4898 8.70472 40.2716 8.7679 40.082 8.89425C39.8925 9.0206 39.7432 9.1929 39.6341 9.41115C39.5307 9.62939 39.479 9.87635 39.479 10.152C39.479 10.422 39.5307 10.6661 39.6341 10.8843C39.7432 11.1025 39.8925 11.2748 40.082 11.4012C40.2716 11.5275 40.4898 11.5907 40.7368 11.5907Z" fill="#222222"/>
<path d="M36.8555 11.9267C36.8555 12.076 36.8038 12.2024 36.7005 12.3057C36.6028 12.4034 36.4794 12.4522 36.33 12.4522C36.1864 12.4522 36.0658 12.4034 35.9682 12.3057C35.8706 12.2024 35.8217 12.076 35.8217 11.9267V6.60266C35.8217 6.45333 35.8706 6.32985 35.9682 6.23222C36.0716 6.12884 36.1979 6.07715 36.3473 6.07715C36.4966 6.07715 36.6172 6.12884 36.7091 6.23222C36.8067 6.32985 36.8555 6.45333 36.8555 6.60266V11.9267Z" fill="#222222"/>
<path d="M32.4314 6.42172C32.73 6.42172 33.0086 6.50787 33.267 6.68017C33.5312 6.85247 33.7437 7.08507 33.9045 7.37798C34.0654 7.67089 34.1458 7.99825 34.1458 8.36008C34.1458 8.71616 34.0654 9.04066 33.9045 9.33357C33.7437 9.62648 33.5312 9.86195 33.267 10.04C33.0086 10.2123 32.73 10.2984 32.4314 10.2984H30.8462L30.9324 10.1434V11.9267C30.9324 12.076 30.8865 12.2023 30.7946 12.3057C30.7027 12.4034 30.5821 12.4522 30.4327 12.4522C30.2891 12.4522 30.1714 12.4034 30.0795 12.3057C29.9876 12.2023 29.9417 12.076 29.9417 11.9267V6.94723C29.9417 6.79791 29.9905 6.67443 30.0881 6.57679C30.1915 6.47341 30.3179 6.42172 30.4672 6.42172H32.4314ZM32.4314 9.31634C32.5405 9.31634 32.6468 9.27039 32.7501 9.1785C32.8535 9.08661 32.9397 8.96887 33.0086 8.82529C33.0775 8.67596 33.112 8.52089 33.112 8.36008C33.112 8.19353 33.0775 8.03846 33.0086 7.89488C32.9397 7.75129 32.8535 7.63643 32.7501 7.55028C32.6468 7.45839 32.5405 7.41244 32.4314 7.41244H30.829L30.9324 7.25737V9.45418L30.8376 9.31634H32.4314Z" fill="#222222"/>
</svg>
