<svg width="191" height="49" viewBox="0 0 191 49" fill="none" xmlns="http://www.w3.org/2000/svg">
<rect y="0.940002" width="191" height="48" rx="10" fill="#007B47"/>
<path d="M47.7266 24.7994C47.138 25.9348 46.3125 27.078 45.25 28.2291C44.1875 29.3801 43 30.3228 41.6875 31.0572L40.4844 29.1822C41.7292 28.4999 42.9167 27.552 44.0469 26.3384C45.1771 25.1249 46.0677 23.9192 46.7188 22.7213H41.4844V20.6666H47.7266V17.8228H49.9688V20.6666H52.2891V22.7213H49.9688V31.6744H47.7266V24.7994ZM59.7266 21.69L58.5859 23.6275C57.9661 23.1327 57.4167 22.716 56.9375 22.3775C56.4635 22.039 55.388 21.341 53.7109 20.2838L54.6953 18.4947C56.0026 19.1457 57.6797 20.2108 59.7266 21.69ZM64.7969 23.5963C63.776 26.039 62.4401 27.9009 60.7891 29.1822C59.138 30.4634 57.0547 31.2629 54.5391 31.5806L53.7578 29.3931C55.1276 29.2317 56.2682 28.9608 57.1797 28.5806C58.0911 28.2004 58.888 27.703 59.5703 27.0884C60.2578 26.4686 60.8411 25.841 61.3203 25.2056C61.8047 24.565 62.3333 23.6119 62.9062 22.3463L64.7969 23.5963ZM76.2344 20.6509H66.7188V18.6822H76.2344V20.6509ZM76.7891 22.3306C76.7786 23.7629 76.5859 25.1093 76.2109 26.3697C75.8411 27.6301 75.2318 28.6796 74.3828 29.5181C73.5391 30.3515 72.5807 30.9218 71.5078 31.2291C70.4401 31.5364 69.3281 31.7134 68.1719 31.7603L67.5391 29.7291C69.7839 29.5728 71.4167 29.0806 72.4375 28.2525C73.4583 27.4244 74.1172 26.1327 74.4141 24.3775H66.3359V22.3306H76.7891ZM86.4141 31.69H84.1797V24.6041C82.6276 25.5989 80.8958 26.3827 78.9844 26.9556L78.4141 24.9088C80.612 24.2525 82.5391 23.2864 84.1953 22.0103C85.8568 20.7343 87.125 19.2681 88 17.6119L90.0234 18.4791C89.3724 19.6822 88.7682 20.6171 88.2109 21.2838C87.6536 21.9504 87.0547 22.5598 86.4141 23.1119V31.69ZM97.8203 21.69L96.6797 23.6275C96.0599 23.1327 95.5104 22.716 95.0312 22.3775C94.5573 22.039 93.4818 21.341 91.8047 20.2838L92.7891 18.4947C94.0964 19.1457 95.7734 20.2108 97.8203 21.69ZM102.891 23.5963C101.87 26.039 100.534 27.9009 98.8828 29.1822C97.2318 30.4634 95.1484 31.2629 92.6328 31.5806L91.8516 29.3931C93.2214 29.2317 94.362 28.9608 95.2734 28.5806C96.1849 28.2004 96.9818 27.703 97.6641 27.0884C98.3516 26.4686 98.9349 25.841 99.4141 25.2056C99.8984 24.565 100.427 23.6119 101 22.3463L102.891 23.5963ZM111.547 20.3463L110.664 22.2994C110.211 22.0442 109.742 21.7916 109.258 21.5416C108.773 21.2916 108.38 21.1067 108.078 20.9869L105.453 19.9322L106.18 18.1275C107.513 18.4973 109.302 19.2369 111.547 20.3463ZM110.336 24.1744L109.484 26.1431C108.557 25.6379 107.794 25.2577 107.195 25.0025C106.602 24.7473 105.607 24.3749 104.211 23.8853L104.93 22.0416C105.799 22.2655 106.591 22.5207 107.305 22.8072C108.018 23.0884 109.029 23.5442 110.336 24.1744ZM115.93 23.565C114.888 26.0285 113.5 27.914 111.766 29.2213C110.036 30.5285 107.956 31.3254 105.523 31.6119L104.898 29.5181C106.961 29.2421 108.734 28.5936 110.219 27.5728C111.708 26.552 112.987 24.8853 114.055 22.5728L115.93 23.565ZM125.594 31.44H116.836V29.7056H123.625V26.7369H117.062V25.0572H123.625V22.5884H117.039V20.9244H125.594V31.44ZM133.078 25.5025L131.359 26.1744C131.005 24.5754 130.445 22.8515 129.68 21.0025L131.242 20.315C131.638 21.2056 131.914 21.8749 132.07 22.3228C132.232 22.7707 132.568 23.8306 133.078 25.5025ZM136.523 20.9869C136.299 24.2629 135.568 26.7916 134.328 28.5728C133.089 30.3541 131.281 31.4426 128.906 31.8384L128.172 30.2056C130.234 29.8306 131.776 28.8957 132.797 27.4009C133.818 25.9009 134.422 23.6952 134.609 20.7838L136.523 20.9869ZM130.133 26.2681L128.32 26.8931C127.961 25.2629 127.406 23.552 126.656 21.7603L128.32 21.0728C128.56 21.6405 128.792 22.2265 129.016 22.8306C129.245 23.4296 129.617 24.5754 130.133 26.2681ZM147.82 20.4166C147.826 20.4947 147.828 20.5676 147.828 20.6353C147.828 21.6874 147.565 23.1666 147.039 25.0728C146.513 26.9739 145.495 28.4921 143.984 29.6275C142.474 30.7577 140.568 31.4582 138.266 31.7291L137.641 29.6588C139.354 29.44 140.797 28.9296 141.969 28.1275C143.141 27.3202 143.966 26.3463 144.445 25.2056C144.924 24.0598 145.211 22.6015 145.305 20.8306L137.445 20.815V18.7994L147.219 18.815L147.82 20.4166ZM151.516 18.565C151.516 19.0494 151.346 19.4582 151.008 19.7916C150.674 20.1249 150.263 20.2916 149.773 20.2916C149.284 20.2916 148.865 20.1301 148.516 19.8072C148.172 19.4843 148 19.0806 148 18.5963C148 18.1015 148.169 17.6926 148.508 17.3697C148.852 17.0468 149.273 16.8853 149.773 16.8853C150.253 16.8853 150.661 17.0468 151 17.3697C151.344 17.6926 151.516 18.091 151.516 18.565ZM150.766 18.565C150.766 18.3046 150.661 18.078 150.453 17.8853C150.25 17.6874 150.018 17.5884 149.758 17.5884C149.492 17.5884 149.26 17.6874 149.062 17.8853C148.865 18.0832 148.766 18.315 148.766 18.5806C148.766 18.8463 148.865 19.078 149.062 19.2759C149.26 19.4739 149.492 19.5728 149.758 19.5728C150.034 19.5728 150.271 19.4739 150.469 19.2759C150.667 19.078 150.766 18.841 150.766 18.565Z" fill="white"/>
</svg>
